<svg width="24" height="25" fill="none" xmlns="http://www.w3.org/2000/svg"><path d="M12 24.596c6.627 0 12-5.373 12-12 0-6.628-5.373-12-12-12s-12 5.372-12 12c0 6.627 5.373 12 12 12z" fill="#627EEA"/><path d="M12.373 3.596v6.652l5.623 2.513-5.622-9.165z" fill="#fff" fill-opacity=".602"/><path d="M12.373 3.596L6.75 12.76l5.623-2.513V3.596z" fill="#fff"/><path d="M12.373 17.072v4.52L18 13.808l-5.627 3.264z" fill="#fff" fill-opacity=".602"/><path d="M12.373 21.592v-4.52L6.75 13.807l5.623 7.784z" fill="#fff"/><path d="M12.373 16.026l5.623-3.265-5.622-2.511v5.776z" fill="#fff" fill-opacity=".2"/><path d="M6.75 12.76l5.623 3.266V10.25L6.75 12.76z" fill="#fff" fill-opacity=".602"/></svg>