<svg width="24" height="25" fill="none" xmlns="http://www.w3.org/2000/svg"><path d="M24 12.596a12 12 0 11-23.999 0 12 12 0 0123.999 0z" fill="#F7931A"/><path fill-rule="evenodd" clip-rule="evenodd" d="M8.529 6.075l2.758.739.616-2.298 1.379.375-.592 2.202 1.124.302.594-2.226 1.402.375-.604 2.239s2.291.507 2.83 2.37c.539 1.863-1.185 2.842-1.717 2.879 0 0 2.007 1.1 1.318 3.266-.69 2.166-2.806 2.553-5.033 2.057L12 20.676l-1.403-.375.617-2.286-1.113-.303-.617 2.302-1.392-.374.618-2.291-2.831-.764.713-1.584s.799.218 1.101.29c.302.072.496-.242.582-.556.085-.314 1.366-5.521 1.488-5.95.12-.429.072-.764-.437-.896-.508-.132-1.2-.338-1.2-.338l.403-1.476zm2.781 6.896l-.763 3.036s3.787 1.367 4.27-.557c.485-1.923-3.507-2.48-3.507-2.48zm.352-1.44l.75-2.782s3.241.58 2.842 2.128c-.4 1.548-2.31.955-3.592.654z" fill="#fff"/></svg>