<svg width="152" height="53" fill="none" xmlns="http://www.w3.org/2000/svg"><path d="M21.762 0c.46.012.918.029 1.378.048a12.61 12.61 0 01-.477 1.65c-.06.951-.057 1.899-.043 2.85.336.154.664.325.981.515a3.24 3.24 0 01.038 1.973c-.253.312-.689.39-1.016.588.011 2.778-.06 5.559.04 8.335a1.592 1.592 0 010 1.922c-.101 2.305-.026 4.611-.047 6.92.76.028 1.52.005 2.276-.07.572-.4 1.09-.872 1.541-1.403a8.893 8.893 0 01.11-2.011c.547-.619 1.526-.26 2.255-.364 1.024-1 2.038-2.011 3.042-3.036a28.15 28.15 0 01.132-2.254 373.01 373.01 0 00-1.185-1.212l-1.217.018c-.218.397-.295.913-.669 1.202a8.982 8.982 0 01-2.433.103c-.13.773.293 1.916-.462 2.419-.689.111-1.587.28-2.15-.235a3.296 3.296 0 01.023-2.127c.67-.487 1.593-.206 2.365-.313a39.615 39.615 0 01-.006-2.523c-.257-.257-.516-.516-.774-.77a123.68 123.68 0 01-1.094-.144c.026-.421.055-.836.078-1.255.381 0 .76 0 1.142.006.165.712.508 1.37.996 1.914.241-.048.72-.143.962-.189V7.865a4.117 4.117 0 01-1.183-.618 3.786 3.786 0 01-.115-2.017c.104-.642.919-.647 1.372-.922a89.4 89.4 0 00-.525-.553c.02-.263.063-.793.086-1.057.422.014.846.03 1.268.046.012.266.034.797.043 1.063l-.565.468c.469.154.912.376 1.317.659.224.713.24 1.474.048 2.196-.258.433-.832.508-1.24.756a490.738 490.738 0 000 4.54 1.904 1.904 0 011.505 1.53c.474.005.947.008 1.42.011a22.347 22.347 0 001.96 1.761c.035-.816.047-1.638.047-2.451a4.188 4.188 0 01-1.188-.605 3.593 3.593 0 01-.123-2.045c.126-.641.947-.64 1.406-.92l-.625-.533c.066-.332.12-.667.215-.994a3.721 3.721 0 011.099-.056c.344.564.02 1.142-.282 1.638.397.197.913.252 1.197.624.195.63.227 1.299.094 1.944-.092.636-.863.688-1.308.965 0 .685 0 1.37.006 2.054.341.234.812.327 1.045.694.134.644.112 1.31-.064 1.944-.633.479-1.5.23-2.238.293-.364.363-.726.725-1.088 1.092 1.334 0 2.67 0 4.003.005l.611-.661-.172-.858a17.454 17.454 0 01-.416-1.653c.419.015.836.051 1.25.11.136.3.251.61.346.927-.144.115-.436.341-.58.453v1.097l.53.572c.565 0 1.133.009 1.7.012 0-1.137 0-2.272.005-3.406-.44-.249-1.142-.272-1.297-.842A9.257 9.257 0 0137.096 13l-.748-.688a9.377 9.377 0 01-1.01-.311 13.51 13.51 0 01-.133-1.126l1.12-.095a61.613 61.613 0 001.532-1.592c.072-.327.156-.651.258-.969.373-.076.75-.133 1.13-.169.035.447.064.897.093 1.343l-1.062.13a13.165 13.165 0 00-1.605 1.715c-.223.593.43.997.715 1.436a6.347 6.347 0 012.373.078c.703.457.496 1.446.469 2.16 0 .713-.836.807-1.323 1.07v3.39l.683-.01c.223-.39.284-.935.68-1.208a7.434 7.434 0 012.266-.078l.838-.816c.012-.246.04-.745.051-.99.434-.01.867-.015 1.3-.017l.026 1.271-1.03.1c-.267.267-.534.534-.798.803.029.802.029 1.603-.006 2.405l.795.78 1.033.098c0 .423-.008.85-.014 1.274h-1.302c-.015-.248-.04-.747-.055-.997-.285-.272-.565-.545-.85-.813a6.812 6.812 0 01-2.266-.086c-.39-.28-.448-.816-.66-1.218-1.114.02-2.302-.197-3.335.33l-.757.149a27.44 27.44 0 00-.35-.49c-1.516.011-3.033 0-4.552.014l-1.438 1.452c-.103.728.244 1.688-.358 2.252-.668.105-1.345.144-2.02.114-.486.484-.97.97-1.456 1.455.006.197.014.598.017.799a1.932 1.932 0 011.49 1.547h1.92c.256-.444.28-1.203.896-1.304a10.59 10.59 0 012.067-.005c.892-.886 1.785-1.77 2.662-2.67.046-.848-.347-1.95.364-2.597.74-.293 1.56-.31 2.31-.046.75.553.526 1.701.376 2.492-.539.925-1.807.473-2.682.507a161.13 161.13 0 00-2.681 2.684c-.055.874.413 2.154-.53 2.69-.721.19-1.482.167-2.189-.069A4.253 4.253 0 0128.75 28a473.72 473.72 0 00-1.885-.005 1.91 1.91 0 01-1.512 1.51c-.006.956-.006 1.915-.009 2.872l.574.439a31.6 31.6 0 01-.537 1.248c-.218 4.51.407 8.994.469 13.495a29.76 29.76 0 01.209 4.848c-.645.004-1.29.004-1.931 0-.046-4.018.453-8.017.528-12.033.197-2.14.263-4.292.196-6.441-.115-.086-.347-.26-.462-.35 0-.214.012-.647.014-.865.112-.097.333-.295.445-.396-.006-.942-.006-1.884-.01-2.83-.404-.214-.943-.275-1.221-.667a3.904 3.904 0 01-.093-1.899c.083-.639.86-.702 1.306-.982 0-.223.012-.45.026-.673-.746-.003-1.491-.003-2.235 0 .023 3.21-.055 6.421.043 9.63a1.588 1.588 0 01-.012 1.95c-.064.948-.027 1.9.11 2.842.192 1.369.026 2.761.212 4.134.23 1.53.032 3.085.235 4.617.133 1.319.173 2.646.12 3.97h-1.916c0-1.138-.049-2.274.057-3.406.284-2 .078-4.027.379-6.027-.063-2.093.321-4.165.295-6.255-.12-.132-.361-.395-.479-.527.006-.255.014-.51.023-.762l.445-.39c-.012-3.26 0-6.517-.006-9.773h-.924a2.044 2.044 0 01-1.297 1.317c-.003 3.836-.003 7.67 0 11.503.273 3.34.41 6.685.563 10.034.162 1.422.215 2.855.156 4.285h-1.918c-.051-1.721.022-3.443.218-5.153-.066-2.11.312-4.2.264-6.313a32.63 32.63 0 00.234-4.849c-.172 0-.52.014-.691.02a5.035 5.035 0 01-.589 1.155 3.493 3.493 0 01-2.049.137c-.614-.1-.64-.858-.896-1.3-2.046-.012-4.091 0-6.134 0a61.92 61.92 0 00-.017.67c.424.234 1.021.312 1.276.762a8.88 8.88 0 01.055 2.225l.792.802c.333.02.666.038 1 .057.015.433.027.865.039 1.298-.445 0-.89.005-1.33.005-.02-.332-.037-.665-.056-.997-.273-.266-.543-.533-.815-.796a8.94 8.94 0 01-2.213-.066c-.499-.24-.53-.9-.781-1.331-.124.131-.373.4-.496.535l-1.1-.09c.018-.422.044-.84.067-1.261.33-.02.662-.043.992-.064l.502.564a2.045 2.045 0 011.602-1.632v-1.157c2.2-.023 4.402 0 6.603-.017.209-.407.286-.92.657-1.22a3.556 3.556 0 012.158 0 7.35 7.35 0 001.36 1.452c.143-3.136.022-6.28.065-9.423-.18-.02-.547-.057-.726-.078-1.036 1.037-2.08 2.063-3.102 3.113.033.664.005 1.33-.086 1.988-.582.596-1.532.278-2.28.372-.33.32-.66.64-.991.956-.026.338-.055.677-.083 1.014l-1.282.052c-.014-.435-.03-.868-.04-1.304.35-.03.697-.063 1.045-.09.33-.333.662-.662.992-.991.078-.754-.223-1.68.35-2.283a11.496 11.496 0 012.009-.083c1.053-1.02 2.08-2.062 3.119-3.096l-.079-.724c-1.658.005-3.314 0-4.97.008a8.542 8.542 0 01-.563 1.152c-.731.372-1.604.143-2.392.152-.905.885-1.798 1.781-2.69 2.678-.046.853.37 2.002-.41 2.623-.76.182-1.549.22-2.324.115-.275.263-.547.527-.824.79l-.078 1.026-1.328.025c.008-.395.034-.788.078-1.18.321-.114.648-.215.981-.301.264-.223.526-.452.787-.679a35.921 35.921 0 010-2.426c-.27-.274-.54-.546-.807-.819-.33-.014-.657-.03-.984-.048-.014-.43-.029-.862-.04-1.292.445 0 .887-.005 1.329-.005.012.326.026.65.037.973l.905.908c.344-.092.691-.18 1.036-.272l-.611-.538.022-1.031 1.257-.095c.048.364.098.728.144 1.092-.167.146-.503.44-.67.59.368.078.739.152 1.106.23.89-.911 1.787-1.813 2.694-2.704-.028-.805-.028-1.61.006-2.412-.948-.953-1.898-1.905-2.85-2.856-.648.022-1.297.003-1.942-.057a6.897 6.897 0 01-.62-1.049 8.9 8.9 0 00-.273.032 6.733 6.733 0 00-2.904 2.088c-.012.246-.038.739-.049.985L0 23.004v-1.248a27.22 27.22 0 011.07-.178 46.26 46.26 0 001.527-1.56c.069-.656.333-1.198 1.08-1.177.269.206.538.412.811.615a2.146 2.146 0 011.343-1.389c-.221-.605-.391-1.228-.508-1.862.424.014.85.048 1.268.1.127.278.198.573.299.863-.224.284-.445.57-.666.862.379.226.878.312 1.165.667.076.637.1 1.279.072 1.92.938.956 1.886 1.903 2.846 2.841a9.2 9.2 0 012.266.078c.431.264.503.842.75 1.248 1.592.009 3.184.012 4.777 0a2.16 2.16 0 011.317-1.306c.008-.696.008-1.392.014-2.088a1.877 1.877 0 01-1.538-1.53c-.703.006-1.407.006-2.11.014-.177.36-.374.707-.59 1.043-.721.04-1.76.344-2.239-.355-.09-.707-.327-1.687.298-2.208a4.45 4.45 0 011.935-.031c.222.332.422.678.6 1.037.742.005 1.489.008 2.234.014l.135-.912a583.015 583.015 0 01-4.014-4.004c-.278 0-.554.009-.83.012-.284.444-.338 1.218-.975 1.292-.729.051-1.707.264-2.235-.38a5.761 5.761 0 01-.135-2.39c-.266-.263-.537-.527-.806-.79l-1.048-.06c.018-.39.026-.784.079-1.174.396-.1.8-.156 1.202-.217.052.384.103.767.153 1.154l.798.754c.789 0 1.658-.226 2.39.152.216.366.405.747.565 1.14.227.005.457.014.683.022 0-1.211.009-2.418-.005-3.629-.336-.229-.82-.3-1.037-.67a4.17 4.17 0 01.026-1.872c.365-.23.747-.434 1.142-.61-.19-.255-.379-.507-.565-.762.014-.32.029-.639.046-.96.422-.02.844-.042 1.265-.056.03.352.055.707.079 1.06-.147.174-.44.518-.586.693.448.32 1.308.401 1.243 1.114a5.01 5.01 0 01-.057 1.45 6.339 6.339 0 01-1.037.632c-.017 1.244-.011 2.486-.011 3.732 1.326 1.326 2.654 2.65 3.985 3.973a6.665 6.665 0 012.328.111c.67.487.482 1.464.436 2.178-.035.701-.844.784-1.337 1.036.005.696.005 1.392.014 2.088a2.127 2.127 0 011.294 1.31h.921c.003-2.35.003-4.697 0-7.044a88.1 88.1 0 00-.459-.464l.009-.765c.112-.105.338-.312.45-.42a1020.43 1020.43 0 010-4.357h-.709c-.247.512-.344 1.338-1.076 1.343-.723.029-1.776.234-2.18-.546a3.94 3.94 0 01.022-2.128c.453-.725 1.466-.524 2.188-.487.712.017.8.848 1.07 1.335h.687c0-1.326.008-2.652-.014-3.979a4.508 4.508 0 00-1.74 1.072c-.028.372-.06.744-.088 1.117-.436-.018-.87-.038-1.303-.057.011-.422.026-.843.043-1.263l.987-.06c.33-.336.66-.668.99-1.003-.02-.536-.009-1.072.034-1.607-.028-.604.704-.659 1.08-.93.014-1.003.012-2.003.017-3.002-.12-.14-.364-.415-.485-.555.038-.332.076-.662.112-.991z" fill="#fff"/><path d="M40.722 24.384c.43-.014.86-.023 1.294-.029a2.734 2.734 0 01-.453 1.807c.415.198 1.156.175 1.208.78.051.625.058 1.252.02 1.877.321.318.64.632.958.95.161 0 .482 0 .643.006.566-.562 1.128-1.126 1.69-1.687l.044-.989h1.343c-.012.43-.026.858-.047 1.289l-.973.051c-.562.556-1.122 1.117-1.681 1.676-.006.234-.012.71-.014.948a8.534 8.534 0 01-1.24.026 13.167 13.167 0 01-.195-1.006c-.293-.312-.589-.615-.884-.922-.718.026-1.433.028-2.147.005a747.673 747.673 0 00-4.114 4.105v3.644l.95.175a3.061 3.061 0 00.99-1.916c.384.008.771.02 1.158.03l.078 1.238c-.361.057-.723.103-1.084.16-.261.261-.522.528-.782.791-.046.868.433 2.14-.51 2.678a3.968 3.968 0 01-2.15-.046c-.723-.481-.488-1.49-.46-2.222.03-.694.83-.78 1.329-.969a785.334 785.334 0 010-3.432h-.987c-.187.346-.17.862-.571 1.049a5.203 5.203 0 01-1.7.017c-.516-.06-.504-.722-.714-1.074-.734 0-1.472 0-2.209.005a1.545 1.545 0 01-1.455 1.472 33.66 33.66 0 00.146 4.901c.21 1.424-.057 2.879.213 4.299.249 1.45-.043 2.933.218 4.382.154 1.313.198 2.636.132 3.956h-1.933a24.994 24.994 0 01.157-4.247c.195-1.376-.06-2.776.189-4.145.278-1.366.014-2.77.215-4.142.174-1.666.226-3.342.156-5.015-.477-.189-1.222-.223-1.306-.862-.034-.78-.321-1.95.565-2.366a5.117 5.117 0 011.88-.031c.61.115.636.822.811 1.297.744-.003 1.487.001 2.23.012.198-.37.18-1 .697-1.083a5.112 5.112 0 011.684.017c.416.17.416.702.58 1.052h1.13c1.373-1.366 2.742-2.735 4.11-4.105.04-.73-.212-1.567.18-2.228.368-.187.748-.35 1.137-.487-.195-.22-.39-.44-.582-.662.015-.34.032-.684.056-1.03zM71.782 24.572a5.099 5.099 0 014.348 1.014c2.623 2.174 2.423 6.702-.153 8.833a5.194 5.194 0 01-5.954.469 5.363 5.363 0 01-2.413-5.085 5.501 5.501 0 011.202-3.317 5.518 5.518 0 012.97-1.91v-.004zm-.042 1.88c-2.793 1.438-2.489 6.694.771 7.321 2.25.298 3.493-2.34 3.186-4.247 0-1.944-1.961-3.971-3.954-3.078l-.003.005zM60.144 26.038c1.544-1.543 3.914-1.675 5.95-1.297-.09.633-.182 1.263-.267 1.896-1.278-.269-2.786-.53-3.895.35a4.074 4.074 0 00-1.226 3.26 4.066 4.066 0 001.748 3.012c1.251.725 2.755.419 4.09.135-.05.625-.095 1.258-.142 1.885-2.115.406-4.61.461-6.316-1.06-2.355-2.072-2.203-6.098.058-8.18zM79.774 24.707h2.376c1.384 2.735 3.432 5.081 4.657 7.905-.304-2.623-.178-5.27-.328-7.903h2.055c-.156 3.532-.128 7.067 0 10.598h-1.977c-1.596-2.808-3.796-5.256-5.09-8.237.312 2.735.188 5.494.33 8.24H79.77c.153-3.534.176-7.073.003-10.603zM90.868 24.707h2.387c1.366 2.738 3.439 5.07 4.637 7.9-.275-2.624-.174-5.268-.312-7.9h2.055c-.157 3.531-.135 7.069 0 10.598h-1.978c-1.587-2.805-3.802-5.236-5.073-8.22.264 2.73.18 5.479.313 8.22h-2.03c.145-3.53.172-7.067 0-10.598zM101.962 24.707h6.638a350.25 350.25 0 00-.09 1.794 120.002 120.002 0 00-4.428-.132c.04.886.064 1.77.078 2.652 1.208-.014 2.418-.044 3.63-.089v1.716a171.024 171.024 0 00-3.638-.085c.011 1.028.031 2.054.065 3.082 1.588-.017 3.174-.064 4.761-.14-.02.6-.043 1.202-.063 1.804-2.318-.003-4.637-.003-6.956 0 .132-3.533.152-7.07.003-10.602zM112.177 25.86c1.55-1.397 3.806-1.47 5.759-1.122a565.71 565.71 0 00-.281 1.91c-1.306-.3-2.878-.546-3.975.413-1.767 1.664-1.466 5.056.704 6.25 1.242.661 2.691.361 4 .078-.052.63-.102 1.261-.149 1.893-2.158.41-4.726.453-6.423-1.165-2.312-2.167-2.031-6.257.365-8.256zM119.053 24.71c2.793-.005 5.582 0 8.374 0-.02.587-.04 1.172-.058 1.756a79.575 79.575 0 00-3.075-.118c-.009 2.988-.026 5.975.078 8.96-.769.003-1.536.003-2.302 0 .115-2.988.124-5.975.072-8.962-1.053.022-2.1.068-3.151.128l.062-1.764zM128.583 24.707h2.327c-.057 1.893-.126 3.786-.098 5.68a5.91 5.91 0 00.491 2.566c.832 1.478 3.55 1.214 3.9-.528.522-2.535.149-5.148.163-7.716.74-.003 1.482-.003 2.224 0a243.834 243.834 0 00-.069 5.41 6.523 6.523 0 01-1.15 4.16 4.288 4.288 0 01-3.595 1.303 4.034 4.034 0 01-3.196-1.426 6.839 6.839 0 01-.918-3.773c-.019-1.892-.031-3.788-.079-5.676zM140.574 24.704c1.036.005 2.071.005 3.11.005.448 2.764 1.67 5.33 2.083 8.1.5-2.787 1.854-5.327 2.394-8.105 1.024.005 2.051.005 3.078.005.129 3.409.46 6.808.761 10.206v.39h-2.378c-.069-2.98-.253-5.952-.376-8.926-.663 3.065-1.98 5.923-2.846 8.926h-1.727c-.795-3.007-2.124-5.855-2.716-8.92-.131 2.973-.326 5.944-.421 8.92h-2.167c.39-3.535.924-7.055 1.205-10.601z" fill="#fff"/></svg>