<svg width="111" height="27" fill="none" xmlns="http://www.w3.org/2000/svg"><path d="M26.027 25.207h-6.148L18 20.573H7.758l-1.712 4.634H0L9.234 1.808h6.617l10.176 23.399zm-13.4-17.808L9.267 16.49h7.054L12.625 7.4h.001zm35.724-5.59h4.97v23.398h-5.71V10.59l-6.18 7.341h-.872l-6.179-7.34v14.612h-5.71V1.808h4.97l7.354 8.679 7.357-8.679zm19.436 0c8.363 0 12.662 5.316 12.662 11.73 0 6.726-4.164 11.668-13.298 11.668h-9.472V1.808h10.108zm-4.399 19.108h3.727c5.744 0 7.456-3.98 7.456-7.41 0-4.015-2.116-7.41-7.523-7.41h-3.66v14.82zM103.618 7.356H91.806L84.61 0h26.207v26.776l-7.199-7.356V7.356zM91.799 19.429V8.83l-7.412 7.57V27H94.76l7.412-7.57H91.799z" fill="#fff"/></svg>