<svg width="156" height="30" fill="none" xmlns="http://www.w3.org/2000/svg"><path d="M153.998 22.969v-.434h.275c.156 0 .363.012.363.197 0 .2-.12.237-.294.237h-.344zm0 .304h.19l.414.757h.466l-.466-.789c.241-.017.449-.135.449-.468 0-.412-.277-.544-.761-.544h-.69v1.801h.398v-.757zm2.002-.14c0-1.06-.811-1.673-1.726-1.673-.915 0-1.726.615-1.726 1.672 0 1.059.811 1.674 1.726 1.674.915 0 1.726-.615 1.726-1.674zm-.483 0c0 .77-.57 1.288-1.243 1.288v-.005c-.674.005-1.226-.513-1.226-1.284 0-.77.552-1.286 1.226-1.286.674 0 1.243.515 1.243 1.286zM92.713 5.22l.003 18.995h5.32V5.22h-5.323zm-41.857-.025v19.02h5.367V9.772l4.16.002c1.378 0 2.36.346 3.023 1.06.842.904 1.186 2.361 1.186 5.029v8.352h5.2V13.707c0-7.501-4.742-8.513-9.381-8.513h-9.555v.001zm50.426.026v18.994h8.628c4.599 0 6.099-.771 7.724-2.5 1.146-1.213 1.887-3.876 1.887-6.79 0-2.668-.626-5.05-1.722-6.533-1.972-2.653-4.812-3.17-9.049-3.17h-7.469.001zm5.277 4.136h2.288c3.319 0 5.464 1.503 5.464 5.4 0 3.901-2.146 5.404-5.464 5.404h-2.288V9.357zM85.042 5.22l-4.44 15.054L76.346 5.22h-5.743l6.076 18.994h7.67L90.472 5.22h-5.43zm36.954 18.994h5.323V5.22h-5.323v18.994-.002zm14.916-18.988l-7.429 18.981h5.247l1.176-3.355h8.786l1.122 3.355h5.698l-7.494-18.98H136.912zm3.456 3.464l3.218 8.89h-6.543l3.325-8.89zm-123.589.262v-2.71c.26-.018.524-.032.793-.041 7.351-.232 12.173 6.37 12.173 6.37s-5.209 7.292-10.793 7.292a6.727 6.727 0 01-2.173-.35v-8.216c2.862.348 3.437 1.622 5.157 4.513l3.827-3.252s-2.793-3.694-7.501-3.694c-.512 0-1.004.036-1.483.088zm0-8.95v4.047A18.5 18.5 0 0117.572 4c10.222-.347 16.882 8.451 16.882 8.451s-7.65 9.38-15.62 9.38c-.689 0-1.376-.06-2.055-.183v2.503c.55.07 1.118.11 1.712.11 7.417 0 12.78-3.817 17.974-8.338.861.697 4.386 2.386 5.111 3.127-4.939 4.17-16.447 7.528-22.97 7.528-.63 0-1.234-.037-1.827-.095V30h28.188V0H16.78v.001zm0 19.511v2.135c-6.86-1.23-8.765-8.421-8.765-8.421s3.296-3.68 8.765-4.275v2.346l-.012-.001c-2.869-.348-5.113 2.356-5.113 2.356s1.257 4.552 5.125 5.861zM4.594 12.915S8.661 6.868 16.78 6.242V4.05C7.787 4.776 0 12.453 0 12.453s4.411 12.854 16.779 14.03v-2.331C7.702 23 4.594 12.915 4.594 12.915z" fill="#fff"/></svg>