<svg width="88" height="58" fill="none" xmlns="http://www.w3.org/2000/svg"><path d="M25.928 24.6v14.203h-4.525V20.95l9.339.01c3.967 0 5.319 2.795 5.319 5.335v12.508h-4.516V26.32c0-1.063-.55-1.719-1.88-1.719h-3.738.001zm30.76-.212c-1.547 0-2.744.794-3.244 1.872-.296.647-.398 1.144-.432 1.937h6.958c-.088-1.937-.968-3.809-3.284-3.809h.001zm-3.678 6.886c0 2.312 1.44 4.015 4.007 4.015 2 0 2.992-.555 4.147-1.703l2.793 2.666c-1.79 1.765-3.666 2.838-6.974 2.838-4.331 0-8.475-2.36-8.475-9.238 0-5.877 3.62-9.204 8.373-9.204 4.82 0 7.604 3.896 7.604 8.997v1.63H53.01zm-8.319 7.507c-3.685 0-5.248-2.563-5.248-5.096V16.088h4.516v4.863h3.405v3.65H43.96v8.8c0 1.038.49 1.613 1.568 1.613h1.837v3.767H44.691zM17.38 18.484h-4.557v-4.326h4.557V18.484zm.01 20.508c-3.41-.329-4.57-2.395-4.57-4.782l.004-13.259h4.565v18.04zm54.284-.382c-3.404-.329-4.557-2.392-4.557-4.776V13.545h4.557V38.61zM87.61 16.477c-4.13-20.13-43.227-21.404-68.428-6.072v1.693C44.356-.832 80.061-.756 83.314 17.785c1.089 6.13-2.369 12.523-8.541 16.195v4.809c7.43-2.719 15.05-11.528 12.838-22.312h-.001zm-45.807 35.22C24.41 53.303 6.286 50.78 3.75 37.197c-1.241-6.694 1.81-13.794 5.86-18.204v-2.357C2.32 23.024-1.634 31.112.643 40.668c2.907 12.254 18.46 19.198 42.203 16.893 9.393-.918 21.687-3.936 30.234-8.626v-6.66c-7.755 4.616-20.588 8.433-31.277 9.422z" fill="#fff"/></svg>