<svg width="164" height="20" fill="none" xmlns="http://www.w3.org/2000/svg"><path d="M137.164 10.07V.173l1.621.003 1.624.004 9.983 7.25c5.489 3.988 10.048 7.25 10.129 7.25.08 0 .147-3.265.147-7.253V.169H164v19.83l-1.008-.06-1.009-.062-10.726-7.635c-5.899-4.2-10.773-7.634-10.831-7.634-.057 0-.104 3.456-.104 7.68v7.682h-3.158v-9.9zm-8.595-.085V0h4.035v19.97h-4.035V9.985zm-32.245 9.832c.033-.084 3.058-4.538 6.724-9.895L109.714.18l1.403-.004 1.403-.003 2.21 3.285c1.217 1.806 4.233 6.26 6.704 9.899l4.493 6.613h-4.3l-5.168-7.86c-2.841-4.324-5.232-7.876-5.314-7.894-.08-.019-2.524 3.519-5.429 7.86l-5.283 7.894h-2.085c-1.157 0-2.055-.067-2.024-.153zm-33.53-9.746V.17h3.477l5.995 8.023c3.298 4.412 6.06 7.982 6.138 7.935.082-.049 2.804-3.66 6.05-8.024L90.356.172h3.307V19.97H90.16l-.045-6.944-.046-6.942-5.174 6.948-5.175 6.948-1.566-.047-1.566-.047-5.098-6.805-5.1-6.804-.045 6.846-.046 6.847h-3.504v-9.9zm-17.54 1.45V3.073H34.73V.17h24.73v2.903H49.113V19.97h-3.86v-8.449zm-17.89-1.536V0h3.858v19.97h-3.859V9.985zM18.42 7.753c.462-.447.66-2.371.357-3.456-.34-1.221-.36-1.224-8.247-1.224H3.683v5.131l7.187-.049c7-.045 7.195-.057 7.55-.4v-.002zm-.656 9.084c1.085-.446 1.26-.812 1.326-2.732.053-1.56.021-1.78-.314-2.195-.207-.254-.667-.542-1.025-.638-.393-.107-3.302-.175-7.358-.177h-6.71v5.974h6.759c5.31 0 6.88-.05 7.323-.233l-.001.001zM0 10.085V.172h8.638c9.08.001 10.29.078 11.815.755 1.695.752 2.242 1.95 2.148 4.714-.073 2.112-.417 2.952-1.434 3.49-.354.189-.642.38-.64.428.002.047.316.226.699.396.38.172.873.556 1.092.854.365.5.4.755.45 3.273.051 2.6.034 2.768-.363 3.499-.485.893-1.4 1.545-2.76 1.974-.862.269-1.964.31-10.304.373L0 20v-9.914z" fill="#fff"/></svg>