<svg width="130" height="34" fill="none" xmlns="http://www.w3.org/2000/svg"><path d="M45.092 12.828h3.361l-.445 2.662h-3.362l.446-2.662zm-4.88-3.443h4.177l-1.98 11.855c-.178 1.06-.075 1.578.169 1.996.567 1.11 1.825 1.11 2.137 1.11.66 0 1.121-.123 1.644-.247l.37.79c-1.016.443-2.24 1.01-4.314 1.01-.753 0-2.405-.075-3.47-1.036-1.013-.886-.984-1.996-.8-3.105l2.068-12.372v-.001zm7.632 16.045l2.907-17.4h4.178l-1.064 6.36c.723-.568 2.497-1.973 5.448-1.973 1.258 0 2.307.296 3.085.714 1.892 1.085 1.598 2.835 1.413 3.944l-1.396 8.355H58.24l1.252-7.493c.198-1.183.34-2.217-.425-2.908-.41-.37-1.03-.591-1.754-.591-1.382 0-2.658.69-3.705 1.503l-1.586 9.49h-4.177v-.001zm23.942-8.207c1.041 0 1.819.112 2.585.277l-.305 1.83c-.495-.107-1-.16-1.506-.16-1.852 0-3.614.764-3.88 2.366-.182 1.084.41 2.243 2.514 2.243 1.475 0 2.562-.493 3.45-.912l.244-1.466h.072l.656-3.917h-.09c.053-.553.059-1.115-.149-1.641-.531-1.332-2.268-1.652-3.46-1.652-2.671 0-4.003 1.208-4.742 1.873l-.997-.419c.893-1.207 2.51-3.376 7.284-3.376 2.733 0 4.372.714 5.159 1.453 1.36 1.258 1.111 2.934.918 4.092l-1.274 7.616h-4.05L74.454 24c-.785.567-2.561 1.799-5.544 1.799-3.267 0-5.043-1.775-4.663-4.042.485-2.908 3.804-4.535 7.54-4.535zm33.229-4.412l.573-3.426h4.176l-.571 3.426h4.564l-.448 2.679h-4.565l-.96 5.751c-.177 1.059-.074 1.578.169 1.995.568 1.11 1.824 1.11 2.138 1.11.66 0 1.12-.123 1.643-.247l.37.79c-1.016.443-2.24 1.01-4.314 1.01-.754 0-2.404-.075-3.469-1.036-1.014-.886-.985-1.996-.8-3.105l1.047-6.268h-2.311l-6.462 10.04h-1.506l-3.012-7.346-5.467 7.345h-1.539L80.43 12.81h4.365l1.616 6.113c.124.567.163.714.28 1.332l5.42-7.445h1.382l2.186 6.088c.215.592.226.716.46 1.38l.67-1.182 3.813-6.286h4.394v.002zm17.068 1.503c-2.994 0-3.897 1.727-4.573 3.177-.037.062-.223.404-.367 1.298-.142.875-.07 1.137-.05 1.189.076 1.318.647 3.875 4.903 3.875 2.92 0 4.277-1.158 5.561-2.268l.969.395c-.919 1.38-2.641 3.968-8.167 3.968-5.779 0-8.302-3.13-7.655-7 .618-3.697 4.134-6.704 9.819-6.704 1.382 0 3.865.173 5.557 1.7 1.933 1.776 1.573 4.117 1.374 5.497h-11.145c.015-.183.044-.426.098-.747.138-.825.259-1.091.316-1.175h6.499c0-1.135 0-3.205-3.139-3.205z" fill="#fff"/><path fill-rule="evenodd" clip-rule="evenodd" d="M16.766 0c9.258 0 16.763 7.606 16.763 16.99 0 9.381-7.506 16.986-16.765 16.986C7.506 33.976 0 26.37 0 16.989 0 7.605 7.506 0 16.766 0zM3.33 16.99c0-7.52 6.015-13.614 13.433-13.614 7.42 0 13.433 6.094 13.433 13.613 0 7.518-6.013 13.612-13.433 13.612-7.418 0-13.433-6.094-13.433-13.612z" fill="#fff"/><path d="M18.434 24.25c-5.455-.51-7.287-.454-7.026-5.05.114-2.008 1.234-9.747 1.234-9.747h3.976l-.963 9.771c.008 1.063.829.924 2.87 1.245 1.309.177 2.538.364 2.538.364l-2.63 3.417z" fill="#fff" stroke="#fff" stroke-width=".5"/><path d="M17.65 12.438h3.462l-.237 2.89h-3.463l.238-2.89z" fill="#fff"/></svg>