<svg width="1440" height="699" fill="none" xmlns="http://www.w3.org/2000/svg"><g opacity=".3"><g opacity=".5" stroke="#313131"><path d="M721 1v512M-354.001 398.5H1643M-354.001 317H1643M-354.001 253H1643M-354.001 203H1643M-354.001 162H1643M-354.001 128H1643M-354.001 99H1643M-354.001 75H1643M-354.001 55H1643M-354.001 36H1643M-354.001 18H1643M-354.001 1H1643M650.5 1.5L502 516.5M585 .5L289.5 509M516.5 1L77 504.5M445 2l-588.5 510.5M380.5.5l-982 672M309 1L-887 698.5M243 .5l-1102.5 546M164.5 1l-1037 501M96.5 1L-1238 582M790 1.5l148.5 515M855.5.5L1151 509M924 1l439.5 503.5M995.5 2L1584 512.5M1060 .5l982 672M1131.5 1l1196 697.5M1197.5.5l1102.5 546M1276 1l1037 501M1344 1l1334.5 581"/></g></g></svg>