<svg width="540" height="486" fill="none" xmlns="http://www.w3.org/2000/svg"><rect x="97" y="50" width="346" height="436" rx="17.78" fill="#1D1E22"/><mask id="a" style="mask-type:alpha" maskUnits="userSpaceOnUse" x="97" y="50" width="346" height="436"><rect x="97" y="50" width="346" height="436" rx="12.369" fill="#1D1E22"/></mask><g mask="url(#a)"><path d="M-53.844 245.253l-.594.995.594-.995zm664.438-204.53l.525 1.034-.525-1.034zM-813.793 187.98c8.027 11.457 21.112 17.831 38.235 20.706 17.114 2.875 38.412 2.281 63.09-.324 24.689-2.607 52.846-7.238 83.697-12.48 30.863-5.245 64.433-11.103 99.994-16.176 142.26-20.295 316.107-27.971 474.339 66.542l1.189-1.991c-158.944-94.938-333.472-87.159-475.855-66.847-35.6 5.078-69.207 10.943-100.055 16.185-30.86 5.244-58.948 9.863-83.553 12.461-24.617 2.599-45.664 3.164-62.462.343-16.789-2.819-29.184-8.994-36.719-19.75l-1.9 1.331zm759.355 58.268c122.324 73.065 208.417 105.431 272.955 110.62 64.653 5.197 107.6-16.885 143.526-52.394 17.934-17.725 34.116-38.792 50.375-61.44 16.28-22.676 32.611-46.896 50.926-71.077 36.598-48.319 80.951-96.243 147.775-130.2l-1.05-2.067C542.803 73.87 498.196 122.1 461.495 170.557c-18.334 24.206-34.738 48.528-50.96 71.124-16.244 22.625-32.333 43.561-50.122 61.144-35.522 35.109-77.83 56.867-141.71 51.731-63.996-5.145-149.716-37.286-271.952-110.299l-1.19 1.991zm665.557-204.49C678.389 7.573 760.874-.167 848.185 4.573c87.305 4.74 179.285 21.945 265.505 37.54 86.17 15.586 166.63 29.575 230.74 27.794 64.09-1.782 112.28-19.35 133.23-67.352l-2.12-.927c-20.39 46.722-67.35 64.186-131.18 65.96-63.81 1.774-144.02-12.159-230.26-27.756-86.17-15.588-178.31-32.826-265.789-37.575C760.838-2.49 677.872 5.235 610.069 39.69l1.05 2.067z" fill="#F8C479"/></g><g clip-path="url(#clip0_119_1334)"><path d="M410.563 80.877a1.55 1.55 0 00-1.545 1.546c0 .85.695 1.546 1.545 1.546a1.55 1.55 0 001.544-1.546 1.55 1.55 0 00-1.544-1.546zm0 10.823a1.55 1.55 0 00-1.545 1.546c0 .85.695 1.546 1.545 1.546a1.55 1.55 0 001.544-1.546 1.55 1.55 0 00-1.544-1.546zm0-5.412a1.55 1.55 0 00-1.545 1.547c0 .85.695 1.546 1.545 1.546a1.55 1.55 0 001.544-1.546 1.55 1.55 0 00-1.544-1.547z" fill="#F8C479"/></g><g clip-path="url(#clip1_119_1334)" fill="#F8C479"><path d="M348.898 288.763l3.217-1.032a.333.333 0 00.16-.518l-5.171-6.761a.324.324 0 00-.516 0l-5.171 6.761a.333.333 0 00.159.518l3.218 1.032-3.172 1.017c-.152.049-.152.267 0 .315l3.172 1.018-3.172 1.017c-.152.049-.152.267 0 .316 5.601 1.796 5.182 1.689 5.323 1.644l5.125-1.644c.152-.049.152-.267 0-.316l-3.172-1.017 3.172-1.018c.152-.048.152-.266 0-.315l-3.172-1.017z"/><path d="M341.49 294.133l5.105 6.172a.324.324 0 00.501 0l5.105-6.172c.105-.127-.018-.313-.174-.264-5.555 1.782-5.139 1.676-5.28 1.631l-5.082-1.631c-.156-.049-.28.137-.175.264zM352.115 287.731l-5.269 1.69v-9.097a.32.32 0 01.253.122l5.177 6.769a.333.333 0 01-.161.516z"/><path d="M352.07 290.095l-5.224 1.676-5.224-1.676c-.152-.049-.152-.266 0-.315l3.172-1.017 2.052.658 2.052-.658 3.172 1.017c.152.049.152.266 0 .315z"/><path d="M352.07 292.445c-5.598 1.796-5.182 1.69-5.323 1.644l-5.125-1.644c-.152-.048-.152-.266 0-.314l3.172-1.018 2.052.658 2.052-.658 3.172 1.018c.152.048.152.266 0 .314zM352.201 294.133l-5.105 6.172a.326.326 0 01-.25.118v-4.892l5.181-1.661c.155-.05.279.136.174.263z"/></g><path d="M128.65 88.192v-7.793h3.009c.076 0 .161.004.254.01.098.005.195.015.293.033.407.062.752.204 1.033.428.285.22.5.498.644.833.148.336.222.707.222 1.115 0 .404-.074.774-.222 1.11a2.154 2.154 0 01-.649.838c-.282.22-.624.36-1.028.422a4.049 4.049 0 01-.547.043h-2.213v2.96h-.796zm.796-3.718h2.191c.065 0 .141-.004.228-.011.086-.007.171-.02.254-.038.267-.058.485-.168.655-.33.173-.162.301-.355.384-.579.087-.224.13-.456.13-.698 0-.242-.043-.474-.13-.698a1.492 1.492 0 00-.384-.585 1.332 1.332 0 00-.655-.33 1.503 1.503 0 00-.254-.032 2.81 2.81 0 00-.228-.01h-2.191v3.31zm7.82 3.88c-.581 0-1.077-.132-1.488-.395a2.572 2.572 0 01-.947-1.093c-.22-.466-.33-1-.33-1.602 0-.613.112-1.15.335-1.613.224-.461.542-.82.953-1.076.415-.26.907-.39 1.477-.39.585 0 1.082.132 1.494.395.414.26.73.622.947 1.088.22.461.33.993.33 1.596 0 .613-.11 1.153-.33 1.618a2.53 2.53 0 01-.953 1.082c-.415.26-.911.39-1.488.39zm0-.763c.649 0 1.133-.215 1.45-.644.318-.433.477-.994.477-1.683 0-.707-.161-1.27-.482-1.688-.318-.419-.799-.628-1.445-.628-.436 0-.797.1-1.082.298a1.756 1.756 0 00-.633.817 3.25 3.25 0 00-.206 1.2c0 .704.162 1.269.487 1.695.325.422.803.633 1.434.633zm6.08.763c-.581 0-1.077-.132-1.488-.395a2.572 2.572 0 01-.947-1.093c-.22-.466-.33-1-.33-1.602 0-.613.112-1.15.336-1.613.223-.461.541-.82.952-1.076.415-.26.907-.39 1.477-.39.585 0 1.083.132 1.494.395.415.26.73.622.947 1.088.22.461.33.993.33 1.596 0 .613-.11 1.153-.33 1.618a2.53 2.53 0 01-.953 1.082c-.415.26-.911.39-1.488.39zm0-.763c.65 0 1.133-.215 1.45-.644.318-.433.477-.994.477-1.683 0-.707-.161-1.27-.482-1.688-.317-.419-.799-.628-1.445-.628-.436 0-.797.1-1.082.298a1.769 1.769 0 00-.633.817 3.25 3.25 0 00-.206 1.2c0 .704.163 1.269.487 1.695.325.422.803.633 1.434.633zm3.748.6v-7.954h.796v7.955h-.796zm3.935 0V80.4h2.365l.422.005c.202.004.395.019.579.044.592.083 1.086.303 1.483.66.397.357.694.812.893 1.364.198.552.297 1.16.297 1.823 0 .664-.099 1.272-.297 1.824a3.301 3.301 0 01-.893 1.364c-.397.357-.891.577-1.483.66-.18.021-.373.036-.579.043-.206.004-.346.005-.422.005h-2.365zm.823-.763h1.542c.148 0 .307-.003.476-.01.173-.011.321-.03.444-.055.454-.079.821-.263 1.098-.551.282-.289.487-.65.617-1.083.13-.436.195-.914.195-1.434 0-.523-.065-1.003-.195-1.44a2.534 2.534 0 00-.617-1.081c-.281-.285-.647-.468-1.098-.547a2.852 2.852 0 00-.449-.049 7.547 7.547 0 00-.471-.016h-1.542v6.266zm8.597.926c-.57 0-1.064-.126-1.483-.379a2.57 2.57 0 01-.968-1.066c-.231-.458-.347-.996-.347-1.613 0-.638.114-1.19.341-1.656.227-.465.547-.824.958-1.076.415-.253.904-.38 1.467-.38.577 0 1.069.134 1.477.401.407.264.716.643.925 1.137.209.494.305 1.084.287 1.77h-.812v-.282c-.014-.758-.178-1.33-.492-1.716-.31-.386-.765-.579-1.364-.579-.628 0-1.109.204-1.445.612-.332.407-.498.988-.498 1.742 0 .736.166 1.308.498 1.716.336.404.81.606 1.424.606.418 0 .782-.096 1.093-.287.313-.195.561-.474.741-.839l.741.287a2.65 2.65 0 01-1.022 1.185 2.827 2.827 0 01-1.521.417zm-2.235-2.863v-.665h4.464v.665h-4.464zm8.234 2.863c-.537 0-.992-.135-1.364-.406a2.548 2.548 0 01-.844-1.11 4.14 4.14 0 01-.287-1.574c0-.592.096-1.118.287-1.58.195-.466.48-.832.855-1.099s.837-.4 1.386-.4c.534 0 .992.135 1.374.406.382.27.675.638.877 1.104.205.465.308.988.308 1.569 0 .584-.103 1.11-.308 1.575a2.637 2.637 0 01-.888 1.109c-.386.27-.851.406-1.396.406zm-2.63 2.435v-8.442h.715v4.4h.086v4.042h-.801zm2.549-3.177c.408 0 .747-.102 1.017-.308.271-.206.473-.485.606-.839.137-.357.206-.757.206-1.201 0-.44-.067-.837-.2-1.19a1.83 1.83 0 00-.612-.84c-.27-.205-.615-.308-1.033-.308-.408 0-.747.1-1.018.298a1.781 1.781 0 00-.6.828c-.134.35-.2.754-.2 1.212 0 .45.066.855.2 1.212a1.8 1.8 0 00.606.833c.27.202.613.303 1.028.303zm5.977.742c-.581 0-1.077-.132-1.488-.395a2.572 2.572 0 01-.947-1.093c-.22-.466-.33-1-.33-1.602 0-.613.112-1.15.336-1.613.223-.461.541-.82.952-1.076.415-.26.907-.39 1.477-.39.585 0 1.083.132 1.494.395.415.26.73.622.947 1.088.22.461.33.993.33 1.596 0 .613-.11 1.153-.33 1.618a2.53 2.53 0 01-.953 1.082c-.414.26-.91.39-1.488.39zm0-.763c.65 0 1.133-.215 1.451-.644.317-.433.476-.994.476-1.683 0-.707-.161-1.27-.482-1.688-.317-.419-.799-.628-1.445-.628-.436 0-.797.1-1.082.298a1.769 1.769 0 00-.633.817 3.25 3.25 0 00-.206 1.2c0 .704.163 1.269.487 1.695.325.422.803.633 1.434.633zm5.768.757c-.686 0-1.25-.147-1.694-.443a1.85 1.85 0 01-.812-1.234l.812-.135c.087.332.283.597.59.795.31.195.693.292 1.147.292.444 0 .794-.092 1.05-.276a.897.897 0 00.384-.763.717.717 0 00-.124-.438c-.08-.115-.244-.222-.493-.32-.249-.097-.62-.212-1.114-.346-.531-.144-.946-.288-1.245-.433-.3-.144-.512-.31-.639-.497a1.24 1.24 0 01-.189-.698c0-.332.094-.623.281-.872.188-.252.448-.447.78-.584.332-.14.718-.211 1.158-.211.44 0 .833.072 1.179.216.35.141.632.34.844.596.213.256.34.553.379.892l-.811.147a1.172 1.172 0 00-.515-.812c-.285-.202-.647-.307-1.087-.314-.415-.01-.752.069-1.012.238-.26.166-.39.388-.39.666 0 .155.047.288.141.4.094.108.263.211.509.309.249.097.602.203 1.06.319.538.137.96.281 1.267.433.306.151.524.33.654.535.13.206.195.46.195.763 0 .552-.206.987-.617 1.305-.407.314-.97.47-1.688.47zm3.289-7.11v-.893h.795v.893h-.795zm0 6.954v-5.845h.795v5.845h-.795zm5.275 0a3.896 3.896 0 01-.974.08 2.155 2.155 0 01-.855-.205 1.23 1.23 0 01-.568-.574 1.684 1.684 0 01-.174-.654c-.007-.224-.01-.478-.01-.763v-5.352h.79v5.32c0 .245.001.45.005.616a.978.978 0 00.114.433c.13.242.335.386.617.433.285.047.636.036 1.055-.033v.699zm-3.831-5.163v-.682h3.831v.682h-3.831zM133.488 118.31v-2.565h2.608v2.565h-2.608zm0-17.317v-2.565h2.608v2.565h-2.608zm1.364 15.488c-1.097 0-2.078-.202-2.944-.606a5.574 5.574 0 01-2.132-1.71c-.549-.736-.898-1.609-1.05-2.62l2.576-.411c.202.888.635 1.595 1.299 2.121.671.52 1.471.78 2.402.78.895 0 1.631-.21 2.208-.628.577-.426.866-.963.866-1.613 0-.454-.137-.822-.411-1.104-.275-.288-.715-.526-1.321-.714l-3.755-1.169c-2.186-.678-3.28-2.005-3.28-3.982 0-.924.221-1.728.661-2.414.447-.693 1.075-1.223 1.883-1.591.808-.375 1.76-.559 2.857-.552 1.017.007 1.923.191 2.716.552.801.361 1.465.88 1.992 1.559.534.678.913 1.493 1.136 2.446l-2.673.487a3.23 3.23 0 00-.595-1.353 3.039 3.039 0 00-1.115-.909 3.605 3.605 0 00-1.493-.347c-.527-.007-1 .076-1.418.249a2.324 2.324 0 00-.996.715 1.59 1.59 0 00-.368 1.028c0 .425.17.79.509 1.093.346.303.891.563 1.634.779l2.803.812c1.349.389 2.32.92 2.911 1.591.599.663.899 1.547.899 2.651 0 .967-.242 1.815-.725 2.544-.484.728-1.162 1.298-2.035 1.71-.873.404-1.887.606-3.041.606zm15.641-.033a5.45 5.45 0 01-2.208-.454 5.358 5.358 0 01-1.807-1.288 4.986 4.986 0 01-1.093-1.97l2.522-.682c.18.621.508 1.1.984 1.44a2.7 2.7 0 001.591.487c.513 0 .971-.119 1.375-.358.404-.238.721-.559.952-.963.231-.411.347-.869.347-1.374 0-.772-.249-1.418-.747-1.938-.498-.519-1.14-.779-1.927-.779-.238 0-.472.033-.703.098-.224.065-.44.155-.649.27l-1.191-2.056 5.238-4.481.227.628h-7.413v-2.457h9.556v2.468l-4.21 4.048-.021-.769c.945.065 1.749.328 2.413.79a4.543 4.543 0 011.537 1.786c.361.729.541 1.526.541 2.392 0 .981-.242 1.861-.725 2.64a5.201 5.201 0 01-1.926 1.851c-.801.447-1.689.671-2.663.671zm7.036-.314v-2.272l6.667-5.942c.519-.462.88-.898 1.082-1.31.202-.411.303-.808.303-1.19 0-.52-.112-.981-.335-1.385a2.523 2.523 0 00-2.284-1.332c-.541 0-1.021.127-1.439.379a2.625 2.625 0 00-.964.985c-.23.411-.339.855-.324 1.331h-2.684c0-1.039.231-1.944.692-2.716a4.824 4.824 0 011.927-1.797c.822-.426 1.771-.638 2.846-.638.996 0 1.891.223 2.684.671a4.832 4.832 0 011.873 1.839c.454.78.681 1.678.681 2.695 0 .743-.101 1.368-.303 1.873-.202.505-.505.97-.909 1.396-.397.425-.891.898-1.482 1.418l-4.73 4.188-.238-.649h7.662v2.456h-10.725zm18.068.347c-1.018 0-1.934-.238-2.749-.715a5.29 5.29 0 01-1.927-2.002c-.476-.851-.714-1.829-.714-2.933v-4.74c0-1.183.234-2.212.703-3.085a5.025 5.025 0 011.992-2.023c.858-.477 1.854-.715 2.987-.715.786 0 1.533.134 2.24.401a4.903 4.903 0 011.883 1.255l-1.883 1.829a2.94 2.94 0 00-1.006-.768 2.806 2.806 0 00-1.234-.282c-.606 0-1.137.145-1.591.433a2.97 2.97 0 00-1.061 1.115 3.118 3.118 0 00-.368 1.483v2.586l-.476-.519c.447-.52.985-.924 1.613-1.212a4.56 4.56 0 011.969-.444c.982 0 1.847.224 2.598.671a4.777 4.777 0 011.775 1.818c.433.765.649 1.638.649 2.619a4.89 4.89 0 01-.747 2.652 5.5 5.5 0 01-1.959 1.883 5.368 5.368 0 01-2.694.693zm0-2.5c.505 0 .966-.119 1.385-.358a2.78 2.78 0 00.996-.984c.252-.419.378-.881.378-1.386a2.68 2.68 0 00-.368-1.385 2.746 2.746 0 00-.995-.996 2.583 2.583 0 00-1.375-.379c-.505 0-.967.127-1.385.379-.419.246-.75.577-.996.996a2.69 2.69 0 00-.368 1.385c0 .491.119.945.357 1.364.246.411.574.743.985.996.419.245.881.368 1.386.368zm13.876 2.175v-2.576h-6.905v-2.435l4.99-10.574h2.976l-4.989 10.574h3.928v-4.058h2.641v4.058h1.461v2.435h-1.461v2.576h-2.641zm8.754 0v-12.738l-2.922 1.785v-2.878l2.922-1.754h2.662v15.585h-2.662zm5.703-.022v-2.272l6.667-5.942c.519-.462.88-.898 1.082-1.31.202-.411.303-.808.303-1.19 0-.52-.112-.981-.336-1.385a2.52 2.52 0 00-2.283-1.332 2.74 2.74 0 00-1.44.379 2.63 2.63 0 00-.963.985 2.517 2.517 0 00-.325 1.331h-2.684c0-1.039.231-1.944.693-2.716a4.821 4.821 0 011.926-1.797c.823-.426 1.772-.638 2.847-.638.996 0 1.89.223 2.684.671a4.823 4.823 0 011.872 1.839c.455.78.682 1.678.682 2.695 0 .743-.101 1.368-.303 1.873-.202.505-.505.97-.909 1.396-.397.425-.891.898-1.483 1.418l-4.729 4.188-.238-.649h7.662v2.456H203.93zM308.724 306.058v-1.466h1.491v1.466h-1.491zm0-9.895v-1.466h1.491v1.466h-1.491zm.779 8.85c-.626 0-1.187-.116-1.682-.346a3.181 3.181 0 01-1.218-.978c-.314-.42-.513-.919-.6-1.496l1.472-.235c.115.507.363.911.742 1.212.383.297.841.445 1.373.445.511 0 .932-.119 1.261-.358.33-.244.495-.551.495-.922 0-.26-.078-.47-.235-.631-.156-.165-.408-.301-.754-.408l-2.146-.668c-1.249-.387-1.874-1.146-1.874-2.276 0-.527.126-.987.377-1.379a2.455 2.455 0 011.076-.909c.462-.214 1.006-.319 1.633-.315.581.004 1.099.109 1.552.315.458.206.837.503 1.138.891.305.387.522.853.649 1.397l-1.527.279a1.85 1.85 0 00-.34-.773 1.744 1.744 0 00-.637-.52 2.054 2.054 0 00-.854-.198 2.028 2.028 0 00-.81.142 1.33 1.33 0 00-.569.409.909.909 0 00-.21.587.81.81 0 00.291.625c.198.173.509.321.933.445l1.602.464c.771.222 1.326.526 1.664.909.342.379.513.884.513 1.515 0 .553-.138 1.037-.414 1.453a2.773 2.773 0 01-1.163.978c-.499.23-1.078.346-1.738.346zm4.038-.198v-1.299l3.809-3.395c.297-.264.503-.513.619-.748.115-.235.173-.462.173-.681 0-.296-.064-.56-.192-.791a1.45 1.45 0 00-1.305-.761c-.309 0-.583.072-.822.217a1.5 1.5 0 00-.551.562 1.449 1.449 0 00-.185.761h-1.534c0-.594.132-1.111.396-1.552a2.753 2.753 0 011.101-1.027c.47-.243 1.012-.365 1.626-.365.569 0 1.081.128 1.534.384.454.251.81.602 1.07 1.051.26.445.39.959.39 1.54 0 .425-.058.781-.174 1.07a2.502 2.502 0 01-.519.798c-.227.243-.509.513-.847.81l-2.703 2.393-.136-.371h4.379v1.404h-6.129zm6.997 0v-1.299l3.809-3.395c.297-.264.503-.513.619-.748.115-.235.173-.462.173-.681 0-.296-.064-.56-.192-.791a1.437 1.437 0 00-1.305-.761c-.309 0-.583.072-.822.217a1.49 1.49 0 00-.736 1.323h-1.534c0-.594.132-1.111.396-1.552a2.753 2.753 0 011.101-1.027c.47-.243 1.012-.365 1.626-.365.569 0 1.081.128 1.534.384.454.251.81.602 1.07 1.051.26.445.39.959.39 1.54 0 .425-.058.781-.174 1.07a2.502 2.502 0 01-.519.798c-.227.243-.509.513-.847.81l-2.703 2.393-.136-.371h4.379v1.404h-6.129zm10.701.012v-1.471h-3.946v-1.392l2.851-6.042h1.701l-2.851 6.042h2.245v-2.319h1.509v2.319h.835v1.392h-.835v1.471h-1.509zM131.356 423.812a3.83 3.83 0 01-1.472-.27 2.855 2.855 0 01-1.077-.779 2.573 2.573 0 01-.552-1.196l.812-.136c.13.505.404.902.822 1.191.419.285.919.427 1.499.427.383 0 .726-.059 1.029-.178.303-.123.541-.296.714-.52.173-.223.26-.489.26-.795 0-.202-.036-.374-.109-.514a1.02 1.02 0 00-.286-.357 1.744 1.744 0 00-.39-.233 3.149 3.149 0 00-.411-.157l-1.975-.59a3.513 3.513 0 01-.661-.26 2.324 2.324 0 01-.53-.384 1.638 1.638 0 01-.346-.53 1.81 1.81 0 01-.125-.693c0-.44.116-.82.347-1.142.231-.321.546-.568.947-.741a3.35 3.35 0 011.369-.254c.519 0 .983.092 1.39.276a2.62 2.62 0 011.018.79c.267.339.443.741.53 1.207l-.833.151a1.885 1.885 0 00-.374-.882 1.903 1.903 0 00-.746-.574c-.3-.137-.63-.207-.991-.211-.35 0-.662.06-.936.179-.27.115-.485.274-.644.476a1.09 1.09 0 00-.238.693c0 .263.072.474.217.633.147.159.328.283.541.373.216.09.425.164.627.222l1.526.449a5.9 5.9 0 01.558.19c.216.079.425.194.627.346.206.148.376.343.509.584.134.242.2.549.2.92 0 .361-.072.684-.216.969a1.995 1.995 0 01-.601.72 2.74 2.74 0 01-.903.443 3.83 3.83 0 01-1.126.157zm6.821-.162a3.85 3.85 0 01-.974.081 2.16 2.16 0 01-.855-.205 1.237 1.237 0 01-.569-.574 1.699 1.699 0 01-.173-.655 24.501 24.501 0 01-.011-.763v-5.352h.79v5.32c0 .245.002.451.006.617a.995.995 0 00.113.433c.13.241.336.386.617.432.285.047.637.037 1.056-.032v.698zm-3.832-5.162v-.682h3.832v.682h-3.832zm6.33 5.324c-.44 0-.809-.079-1.109-.238a1.613 1.613 0 01-.666-.633 1.735 1.735 0 01-.221-.86c0-.318.063-.588.189-.812.13-.227.305-.413.525-.557.224-.145.482-.255.774-.33.296-.073.622-.136.979-.19.361-.058.713-.106 1.055-.146.347-.043.65-.085.91-.124l-.282.173c.011-.577-.101-1.005-.335-1.283-.235-.278-.643-.416-1.223-.416-.401 0-.74.09-1.018.27-.274.181-.467.466-.579.855l-.774-.227c.134-.523.403-.929.807-1.218.404-.288.929-.433 1.574-.433.534 0 .987.101 1.359.303.375.199.64.487.795.866.072.17.119.359.141.568.022.21.032.423.032.639v3.631h-.709v-1.466l.206.086c-.198.502-.507.884-.925 1.147-.419.264-.92.395-1.505.395zm.092-.687c.372 0 .697-.067.974-.2a1.76 1.76 0 00.671-.547c.17-.234.28-.497.331-.79.043-.187.066-.393.07-.617.003-.227.005-.396.005-.508l.303.157c-.27.036-.564.072-.882.108-.314.036-.624.077-.93.124a7.976 7.976 0 00-.823.168 2.285 2.285 0 00-.482.2 1.11 1.11 0 00-.384.336.903.903 0 00-.146.525c0 .169.042.333.125.492a1 1 0 00.411.395c.191.105.444.157.757.157zm3.92.525l.005-7.792h.801v4.762l2.609-2.814h1.06l-2.738 2.922 3.095 2.922h-1.158l-2.868-2.814v2.814h-.806zm7.417.162c-.57 0-1.064-.126-1.483-.378a2.58 2.58 0 01-.968-1.066c-.231-.459-.347-.996-.347-1.613 0-.639.114-1.191.341-1.656.228-.465.547-.824.958-1.077.415-.252.904-.379 1.467-.379.577 0 1.069.134 1.477.401.408.263.716.642.925 1.136.209.494.305 1.084.287 1.77h-.812v-.282c-.014-.757-.178-1.329-.492-1.715-.31-.386-.765-.579-1.364-.579-.627 0-1.109.204-1.445.611-.331.408-.497.989-.497 1.743 0 .736.166 1.308.497 1.715.336.404.81.606 1.424.606.418 0 .782-.095 1.093-.286.314-.195.561-.475.741-.839l.741.287a2.65 2.65 0 01-1.022 1.185 2.833 2.833 0 01-1.521.416zm-2.235-2.862v-.666h4.465v.666h-4.465zm5.768 2.7v-5.844h.715v1.407l-.141-.184c.065-.173.15-.332.254-.476.105-.148.218-.269.341-.363.152-.134.328-.235.53-.303.202-.072.406-.114.612-.125.206-.014.393 0 .563.044v.747a1.908 1.908 0 00-.698-.038c-.253.029-.486.13-.698.303a1.45 1.45 0 00-.439.546 2.353 2.353 0 00-.195.671 5.161 5.161 0 00-.048.698v2.917h-.796zm5.545.157c-.685 0-1.25-.148-1.694-.444a1.849 1.849 0 01-.811-1.234l.811-.135c.087.332.283.597.59.796.31.194.693.292 1.147.292.444 0 .794-.092 1.05-.276a.897.897 0 00.384-.763.713.713 0 00-.124-.438c-.08-.116-.244-.222-.493-.32a11.56 11.56 0 00-1.114-.346c-.531-.144-.946-.289-1.245-.433-.299-.144-.512-.31-.639-.498a1.24 1.24 0 01-.189-.698c0-.332.094-.622.281-.871.188-.253.448-.447.78-.585.332-.14.718-.211 1.158-.211.44 0 .833.073 1.179.217.35.141.632.339.845.595.212.256.339.554.378.893l-.811.146a1.172 1.172 0 00-.514-.812c-.285-.202-.648-.306-1.088-.313-.415-.011-.752.068-1.012.238-.26.166-.39.387-.39.665 0 .155.047.289.141.401.094.108.263.211.509.308.249.098.602.204 1.06.319.538.137.96.282 1.267.433.306.152.525.33.654.536.13.206.195.46.195.763 0 .552-.205.987-.617 1.304-.407.314-.97.471-1.688.471zM135.88 451.615v-2.576h-6.905v-2.435l4.989-10.574h2.976l-4.989 10.574h3.929v-4.059h2.641v4.059h1.461v2.435h-1.461v2.576h-2.641zm12.437 0v-12.739l-2.922 1.786v-2.879l2.922-1.753h2.663v15.585h-2.663zm12.608 0v-2.576h-6.905v-2.435l4.989-10.574h2.977l-4.99 10.574h3.929v-4.059h2.641v4.059h1.461v2.435h-1.461v2.576h-2.641zm5.615-.022v-2.273l6.667-5.942c.519-.461.88-.898 1.082-1.309.202-.411.303-.808.303-1.191 0-.519-.112-.981-.336-1.385a2.51 2.51 0 00-.93-.974c-.39-.238-.841-.357-1.353-.357a2.73 2.73 0 00-1.44.379 2.623 2.623 0 00-.963.985 2.507 2.507 0 00-.324 1.331h-2.684c0-1.039.23-1.945.692-2.717a4.808 4.808 0 011.927-1.796c.822-.426 1.771-.639 2.846-.639.996 0 1.89.224 2.684.671a4.825 4.825 0 011.872 1.84c.455.779.682 1.678.682 2.695 0 .743-.101 1.367-.303 1.872a4.383 4.383 0 01-.909 1.396c-.397.426-.891.899-1.483 1.418l-4.729 4.189-.238-.65h7.662v2.457H166.54z" fill="#fff"/><path d="M354.182 317.475a6.954 6.954 0 01-6.95 6.958 6.954 6.954 0 01-6.95-6.958 6.953 6.953 0 016.95-6.957 6.953 6.953 0 016.95 6.957z" fill="#fff" stroke="#1D1E22" stroke-width="1.546"/><path d="M349.548 317.475a2.317 2.317 0 11-4.632 0 2.318 2.318 0 012.316-2.319 2.317 2.317 0 012.316 2.319z" fill="#F8C479" stroke="#F8C479" stroke-width="1.546"/><defs><clipPath id="clip0_119_1334"><path fill="#fff" transform="translate(401.295 78.558)" d="M0 0h18.536v18.553H0z"/></clipPath><clipPath id="clip1_119_1334"><path fill="#fff" transform="translate(341.053 280.324)" d="M0 0h11.585v20.099H0z"/></clipPath></defs></svg>