<svg width="518" height="449" fill="none" xmlns="http://www.w3.org/2000/svg"><g filter="url(#filter0_b_103_3690)"><circle cx="152.636" cy="344.933" r="84.13" fill="url(#paint0_radial_103_3690)"/><circle cx="152.636" cy="344.933" r="83.63" stroke="url(#paint1_linear_103_3690)"/></g><path d="M122.266 343.118c1.056 0 1.936.352 2.64 1.056.715.704 1.072 1.579 1.072 2.624 0 1.035-.357 1.91-1.072 2.624-.704.704-1.584 1.056-2.64 1.056h-2.288v3.84h-1.84v-11.2h4.128zm0 5.632c.544 0 .992-.181 1.344-.544.352-.373.528-.842.528-1.408 0-.565-.176-1.029-.528-1.392-.352-.373-.8-.56-1.344-.56h-2.288v3.904h2.288zm10.971-2.432h1.728v8h-1.728v-1.152c-.651.907-1.584 1.36-2.8 1.36-1.099 0-2.037-.405-2.816-1.216-.779-.821-1.168-1.818-1.168-2.992 0-1.184.389-2.181 1.168-2.992.779-.81 1.717-1.216 2.816-1.216 1.216 0 2.149.448 2.8 1.344v-1.136zm-4.336 5.84c.48.48 1.083.72 1.808.72.725 0 1.328-.24 1.808-.72.48-.49.72-1.104.72-1.84s-.24-1.344-.72-1.824c-.48-.49-1.083-.736-1.808-.736-.725 0-1.328.246-1.808.736-.48.48-.72 1.088-.72 1.824s.24 1.35.72 1.84zm13.47-5.84h1.84l-3.072 8.256c-.768 2.07-2.069 3.051-3.904 2.944v-1.616c.544.032.981-.085 1.312-.352.331-.256.603-.661.816-1.216l.08-.16-3.392-7.856h1.888l2.384 5.808 2.048-5.808zm11.657-.208c.906 0 1.637.294 2.192.88.554.587.832 1.376.832 2.368v4.96h-1.728v-4.848c0-.554-.139-.981-.416-1.28-.278-.309-.656-.464-1.136-.464-.534 0-.96.176-1.28.528-.31.352-.464.88-.464 1.584v4.48H150.3v-4.848c0-.554-.134-.981-.4-1.28-.256-.309-.624-.464-1.104-.464-.523 0-.95.182-1.28.544-.331.352-.496.875-.496 1.568v4.48h-1.728v-8h1.728v.96c.512-.778 1.274-1.168 2.288-1.168 1.024 0 1.781.422 2.272 1.264.533-.842 1.349-1.264 2.448-1.264zm6.233 4.944c.128.608.421 1.078.88 1.408.459.32 1.019.48 1.68.48.917 0 1.605-.33 2.064-.992l1.424.832c-.789 1.163-1.957 1.744-3.504 1.744-1.301 0-2.352-.394-3.152-1.184-.8-.8-1.2-1.808-1.2-3.024 0-1.194.395-2.192 1.184-2.992.789-.81 1.803-1.216 3.04-1.216 1.173 0 2.133.411 2.88 1.232.757.822 1.136 1.819 1.136 2.992 0 .182-.021.422-.064.72h-6.368zm-.016-1.408h4.704c-.117-.65-.389-1.141-.816-1.472a2.3 2.3 0 00-1.472-.496c-.64 0-1.173.176-1.6.528-.427.352-.699.832-.816 1.44zm12.177-3.536c.917 0 1.658.294 2.224.88.565.587.848 1.392.848 2.416v4.912h-1.728v-4.736c0-.597-.16-1.056-.48-1.376-.32-.32-.758-.48-1.312-.48-.608 0-1.099.192-1.472.576-.374.374-.56.95-.56 1.728v4.288h-1.728v-8h1.728v1.024c.522-.821 1.349-1.232 2.48-1.232zm9.396 1.872h-1.984v3.84c0 .331.075.571.224.72.149.139.368.219.656.24a13 13 0 001.104-.016v1.552c-1.323.16-2.272.048-2.848-.336-.576-.394-.864-1.114-.864-2.16v-3.84h-1.472v-1.664h1.472v-1.728l1.728-.512v2.24h1.984v1.664zm2.823.544c0 .267.144.48.432.64.298.15.656.283 1.072.4.426.107.853.235 1.28.384.426.15.784.406 1.072.768.298.352.448.8.448 1.344 0 .768-.299 1.371-.896 1.808-.587.438-1.328.656-2.224.656-.79 0-1.467-.165-2.032-.496a2.901 2.901 0 01-1.232-1.376l1.488-.864c.277.768.869 1.152 1.776 1.152.906 0 1.36-.298 1.36-.896 0-.256-.15-.464-.448-.624a4.453 4.453 0 00-1.072-.4 20.6 20.6 0 01-1.264-.4 2.521 2.521 0 01-1.088-.736c-.288-.352-.432-.794-.432-1.328 0-.736.277-1.328.832-1.776.565-.448 1.264-.672 2.096-.672.661 0 1.248.15 1.76.448.522.288.922.694 1.2 1.216l-1.456.816c-.278-.608-.779-.912-1.504-.912-.331 0-.608.075-.832.224a.687.687 0 00-.336.624z" fill="#E5F0F4"/><g filter="url(#filter1_b_103_3690)"><circle cx="270.418" cy="397.814" r="44.469" fill="url(#paint2_radial_103_3690)"/><circle cx="270.418" cy="397.814" r="43.969" stroke="url(#paint3_linear_103_3690)"/></g><path d="M256.34 403.998l-3.888-11.2h2.016l2.976 8.976 2.992-8.976h2l-3.888 11.2h-2.208zm7.293-11.2h1.84v11.2h-1.84v-11.2zm7.649 11.408c-1.077 0-1.994-.245-2.752-.736a3.889 3.889 0 01-1.568-2.016l1.584-.928c.448 1.259 1.376 1.888 2.784 1.888.694 0 1.211-.133 1.552-.4.352-.277.528-.635.528-1.072 0-.459-.186-.805-.56-1.04-.373-.245-1.034-.512-1.984-.8-.533-.16-.965-.309-1.296-.448a6.693 6.693 0 01-1.056-.576 2.48 2.48 0 01-.816-.944c-.181-.373-.272-.811-.272-1.312 0-.992.352-1.776 1.056-2.352.704-.587 1.552-.88 2.544-.88.896 0 1.68.219 2.352.656.672.437 1.19 1.04 1.552 1.808l-1.552.896c-.469-1.045-1.253-1.568-2.352-1.568-.533 0-.96.128-1.28.384-.32.245-.48.581-.48 1.008 0 .416.16.747.48.992.331.235.923.485 1.776.752.427.139.736.245.928.32.203.064.48.171.832.32.363.149.635.299.816.448.182.149.374.336.576.56.214.224.363.48.448.768.086.288.128.613.128.976 0 1.013-.368 1.819-1.104 2.416-.725.587-1.68.88-2.864.88zm12.709-.208l-.784-2.256h-4.768l-.784 2.256h-2l4.064-11.2h2.208l4.048 11.2h-1.984zm-4.944-3.984h3.552l-1.776-5.056-1.776 5.056z" fill="#E5F0F4"/><g filter="url(#filter2_b_103_3690)"><circle cx="274.023" cy="216.334" r="92.543" fill="url(#paint4_radial_103_3690)"/><circle cx="274.023" cy="216.334" r="92.043" stroke="url(#paint5_linear_103_3690)"/></g><path d="M247.821 216.288a4.354 4.354 0 011.728 1.584c.416.672.624 1.448.624 2.328 0 1.376-.488 2.52-1.464 3.432-.976.912-2.168 1.368-3.576 1.368h-7.2v-16.8h6.672c1.376 0 2.536.448 3.48 1.344.96.88 1.44 1.984 1.44 3.312 0 1.456-.568 2.6-1.704 3.432zm-3.216-5.496h-3.912v4.416h3.912c.608 0 1.12-.208 1.536-.624.416-.432.624-.96.624-1.584 0-.624-.208-1.144-.624-1.56a2.049 2.049 0 00-1.536-.648zm.528 11.616c.64 0 1.176-.224 1.608-.672a2.331 2.331 0 00.672-1.68c0-.656-.224-1.208-.672-1.656a2.108 2.108 0 00-1.608-.696h-4.44v4.704h4.44zm9.728-11.688c-.32.32-.704.48-1.152.48-.448 0-.84-.16-1.176-.48a1.652 1.652 0 01-.48-1.176c0-.448.16-.832.48-1.152.32-.336.712-.504 1.176-.504.464 0 .856.168 1.176.504.32.32.48.704.48 1.152 0 .448-.168.84-.504 1.176zM252.413 225v-12h2.592v12h-2.592zm12.298-9.504h-2.976v5.76c0 .496.112.856.336 1.08.224.208.552.328.984.36.448.016 1 .008 1.656-.024V225c-1.984.24-3.408.072-4.272-.504-.864-.592-1.296-1.672-1.296-3.24v-5.76h-2.208V213h2.208v-2.592l2.592-.768V213h2.976v2.496zm7.523 9.816c-1.808 0-3.32-.608-4.536-1.824-1.2-1.216-1.8-2.712-1.8-4.488 0-1.792.6-3.288 1.8-4.488 1.216-1.216 2.728-1.824 4.536-1.824 1.168 0 2.232.28 3.192.84.96.56 1.68 1.312 2.16 2.256l-2.232 1.296a2.983 2.983 0 00-1.248-1.344c-.544-.336-1.176-.504-1.896-.504-1.056 0-1.944.36-2.664 1.08-.704.72-1.056 1.616-1.056 2.688s.352 1.968 1.056 2.688c.72.72 1.608 1.08 2.664 1.08.704 0 1.336-.168 1.896-.504a3.27 3.27 0 001.296-1.344l2.232 1.272a5.708 5.708 0 01-2.208 2.28c-.96.56-2.024.84-3.192.84zm12.75 0c-1.76 0-3.256-.608-4.488-1.824-1.232-1.216-1.848-2.712-1.848-4.488 0-1.776.616-3.272 1.848-4.488 1.232-1.216 2.728-1.824 4.488-1.824 1.776 0 3.272.608 4.488 1.824 1.232 1.216 1.848 2.712 1.848 4.488 0 1.776-.616 3.272-1.848 4.488-1.216 1.216-2.712 1.824-4.488 1.824zm-2.664-3.6c.72.72 1.608 1.08 2.664 1.08s1.944-.36 2.664-1.08c.72-.72 1.08-1.624 1.08-2.712s-.36-1.992-1.08-2.712c-.72-.72-1.608-1.08-2.664-1.08s-1.944.36-2.664 1.08c-.72.72-1.08 1.624-1.08 2.712s.36 1.992 1.08 2.712zm13.791-10.992c-.32.32-.704.48-1.152.48-.448 0-.84-.16-1.176-.48a1.652 1.652 0 01-.48-1.176c0-.448.16-.832.48-1.152.32-.336.712-.504 1.176-.504.464 0 .856.168 1.176.504.32.32.48.704.48 1.152 0 .448-.168.84-.504 1.176zM293.663 225v-12h2.592v12h-2.592zm11.914-12.312c1.376 0 2.488.44 3.336 1.32.848.88 1.272 2.088 1.272 3.624V225h-2.592v-7.104c0-.896-.24-1.584-.72-2.064s-1.136-.72-1.968-.72c-.912 0-1.648.288-2.208.864-.56.56-.84 1.424-.84 2.592V225h-2.592v-12h2.592v1.536c.784-1.232 2.024-1.848 3.72-1.848z" fill="#E5F0F4"/><g filter="url(#filter3_b_103_3690)"><circle cx="402.622" cy="353.345" r="94.947" fill="url(#paint6_radial_103_3690)"/><circle cx="402.622" cy="353.345" r="94.447" stroke="url(#paint7_linear_103_3690)"/></g><path d="M391.657 355.287a4.354 4.354 0 011.728 1.584c.416.672.624 1.448.624 2.328 0 1.376-.488 2.52-1.464 3.432-.976.912-2.168 1.368-3.576 1.368h-7.2v-16.8h6.672c1.376 0 2.536.448 3.48 1.344.96.88 1.44 1.984 1.44 3.312 0 1.456-.568 2.6-1.704 3.432zm-3.216-5.496h-3.912v4.416h3.912c.608 0 1.12-.208 1.536-.624.416-.432.624-.96.624-1.584 0-.624-.208-1.144-.624-1.56a2.049 2.049 0 00-1.536-.648zm.528 11.616c.64 0 1.176-.224 1.608-.672a2.331 2.331 0 00.672-1.68c0-.656-.224-1.208-.672-1.656a2.108 2.108 0 00-1.608-.696h-4.44v4.704h4.44zm17.529-14.208h2.76v16.8h-2.16l-7.92-11.4v11.4h-2.76v-16.8h2.16l7.92 11.4v-11.4zm16.003 8.088a4.354 4.354 0 011.728 1.584c.416.672.624 1.448.624 2.328 0 1.376-.488 2.52-1.464 3.432-.976.912-2.168 1.368-3.576 1.368h-7.2v-16.8h6.672c1.376 0 2.536.448 3.48 1.344.96.88 1.44 1.984 1.44 3.312 0 1.456-.568 2.6-1.704 3.432zm-3.216-5.496h-3.912v4.416h3.912c.608 0 1.12-.208 1.536-.624.416-.432.624-.96.624-1.584 0-.624-.208-1.144-.624-1.56a2.049 2.049 0 00-1.536-.648zm.528 11.616c.64 0 1.176-.224 1.608-.672a2.331 2.331 0 00.672-1.68c0-.656-.224-1.208-.672-1.656a2.108 2.108 0 00-1.608-.696h-4.44v4.704h4.44z" fill="#E5F0F4"/><g filter="url(#filter4_b_103_3690)"><circle cx="347.336" cy="74.515" r="67.304" fill="url(#paint8_radial_103_3690)"/><circle cx="347.336" cy="74.515" r="66.804" stroke="url(#paint9_linear_103_3690)"/></g><path d="M342.876 81.9h-2.096l-2.464-4.047-2.464 4.048h-2.096l3.52-5.76-3.312-5.44h2.08l2.272 3.728 2.272-3.728h2.096l-3.312 5.44 3.504 5.76zm7.737 0l-2.368-4.08h-2.176v4.08h-1.84V70.7h4.48c1.003 0 1.851.353 2.544 1.057.704.693 1.056 1.541 1.056 2.544a3.37 3.37 0 01-.624 1.968 3.486 3.486 0 01-1.6 1.28l2.544 4.352h-2.016zm-4.544-9.471v3.744h2.64c.491 0 .907-.182 1.248-.544.342-.363.512-.806.512-1.328 0-.523-.17-.966-.512-1.328a1.648 1.648 0 00-1.248-.544h-2.64zM358.17 70.7c1.056 0 1.936.352 2.64 1.056.714.704 1.072 1.578 1.072 2.624 0 1.034-.358 1.909-1.072 2.624-.704.704-1.584 1.056-2.64 1.056h-2.288v3.84h-1.84V70.7h4.128zm0 5.632c.544 0 .992-.182 1.344-.544.352-.374.528-.843.528-1.408 0-.566-.176-1.03-.528-1.392-.352-.374-.8-.56-1.344-.56h-2.288v3.904h2.288z" fill="#E5F0F4"/><g filter="url(#filter5_b_103_3690)"><circle cx="441.081" cy="185.086" r="76.919" fill="url(#paint10_radial_103_3690)"/><circle cx="441.081" cy="185.086" r="76.419" stroke="url(#paint11_linear_103_3690)"/></g><path d="M411.979 182.894h4.96v1.76h-6.8v-11.2h6.72v1.76h-4.88v2.912h4.48v1.744h-4.48v3.024zm10.997-4.576h-1.984v3.84c0 .331.074.571.224.72.149.139.368.219.656.24.298.011.666.006 1.104-.016v1.552c-1.323.16-2.272.048-2.848-.336-.576-.394-.864-1.114-.864-2.16v-3.84h-1.472v-1.664h1.472v-1.728l1.728-.512v2.24h1.984v1.664zm5.775-1.872c.917 0 1.659.294 2.224.88.565.587.848 1.392.848 2.416v4.912h-1.728v-4.736c0-.597-.16-1.056-.48-1.376-.32-.32-.757-.48-1.312-.48-.608 0-1.099.192-1.472.576-.373.374-.56.95-.56 1.728v4.288h-1.728v-11.2h1.728v4.224c.523-.821 1.349-1.232 2.48-1.232zm6.293 4.944c.128.608.421 1.078.88 1.408.458.32 1.018.48 1.68.48.917 0 1.605-.33 2.064-.992l1.424.832c-.79 1.163-1.958 1.744-3.504 1.744-1.302 0-2.352-.394-3.152-1.184-.8-.8-1.2-1.808-1.2-3.024 0-1.194.394-2.192 1.184-2.992.789-.81 1.802-1.216 3.04-1.216 1.173 0 2.133.411 2.88 1.232.757.822 1.136 1.819 1.136 2.992 0 .182-.022.422-.064.72h-6.368zm-.016-1.408h4.704c-.118-.65-.39-1.141-.816-1.472a2.3 2.3 0 00-1.472-.496c-.64 0-1.174.176-1.6.528-.427.352-.699.832-.816 1.44zm9.696-1.984c.437-.992 1.259-1.488 2.464-1.488v1.872c-.661-.042-1.237.118-1.728.48-.491.352-.736.939-.736 1.76v4.032h-1.728v-8h1.728v1.344zm5.373-2.864c-.214.214-.47.32-.768.32-.299 0-.56-.106-.784-.32a1.098 1.098 0 01-.32-.784c0-.298.106-.554.32-.768a1.04 1.04 0 01.784-.336c.309 0 .57.112.784.336.213.214.32.47.32.768 0 .299-.112.56-.336.784zm-1.632 9.52v-8h1.728v8h-1.728zm9.126-8h1.728v8h-1.728v-1.024c-.522.822-1.349 1.232-2.48 1.232-.917 0-1.658-.293-2.224-.88-.565-.586-.848-1.392-.848-2.416v-4.912h1.728v4.736c0 .598.16 1.056.48 1.376.32.32.758.48 1.312.48.608 0 1.099-.186 1.472-.56.374-.384.56-.965.56-1.744v-4.288zm12.485-.208c.906 0 1.637.294 2.192.88.554.587.832 1.376.832 2.368v4.96h-1.728v-4.848c0-.554-.139-.981-.416-1.28-.278-.309-.656-.464-1.136-.464-.534 0-.96.176-1.28.528-.31.352-.464.88-.464 1.584v4.48h-1.728v-4.848c0-.554-.134-.981-.4-1.28-.256-.309-.624-.464-1.104-.464-.523 0-.95.182-1.28.544-.331.352-.496.875-.496 1.568v4.48h-1.728v-8h1.728v.96c.512-.778 1.274-1.168 2.288-1.168 1.024 0 1.781.422 2.272 1.264.533-.842 1.349-1.264 2.448-1.264zm-48.211 32.416c-1.685 0-3.083-.554-4.192-1.664-1.109-1.12-1.664-2.501-1.664-4.144 0-1.642.555-3.018 1.664-4.128 1.109-1.12 2.507-1.68 4.192-1.68 1.013 0 1.947.24 2.8.72a5.221 5.221 0 012.016 1.952l-1.6.928a3.243 3.243 0 00-1.312-1.312 3.706 3.706 0 00-1.904-.496c-1.195 0-2.165.379-2.912 1.136-.736.758-1.104 1.718-1.104 2.88 0 1.163.368 2.123 1.104 2.88.747.758 1.717 1.136 2.912 1.136.704 0 1.344-.16 1.92-.48a3.227 3.227 0 001.296-1.328l1.6.912c-.469.822-1.136 1.478-2 1.968-.853.48-1.792.72-2.816.72zm6.311-.208v-11.68h1.728v11.68h-1.728zm10.07-8h1.728v8h-1.728v-1.152c-.651.907-1.584 1.36-2.8 1.36-1.099 0-2.037-.405-2.816-1.216-.779-.821-1.168-1.818-1.168-2.992 0-1.184.389-2.181 1.168-2.992.779-.81 1.717-1.216 2.816-1.216 1.216 0 2.149.448 2.8 1.344v-1.136zm-4.336 5.84c.48.48 1.083.72 1.808.72.725 0 1.328-.24 1.808-.72.48-.49.72-1.104.72-1.84s-.24-1.344-.72-1.824c-.48-.49-1.083-.736-1.808-.736-.725 0-1.328.246-1.808.736-.48.48-.72 1.088-.72 1.824s.24 1.35.72 1.84zm9.583-3.632c0 .267.144.48.432.64.299.15.656.283 1.072.4a14.7 14.7 0 011.28.384c.427.15.784.406 1.072.768.299.352.448.8.448 1.344 0 .768-.298 1.371-.896 1.808-.586.438-1.328.656-2.224.656-.789 0-1.466-.165-2.032-.496a2.906 2.906 0 01-1.232-1.376l1.488-.864c.278.768.87 1.152 1.776 1.152.907 0 1.36-.298 1.36-.896 0-.256-.149-.464-.448-.624a4.437 4.437 0 00-1.072-.4 20.82 20.82 0 01-1.264-.4 2.533 2.533 0 01-1.088-.736c-.288-.352-.432-.794-.432-1.328 0-.736.278-1.328.832-1.776.566-.448 1.264-.672 2.096-.672.662 0 1.248.15 1.76.448a2.93 2.93 0 011.2 1.216l-1.456.816c-.277-.608-.778-.912-1.504-.912-.33 0-.608.075-.832.224a.687.687 0 00-.336.624zm6.891 0c0 .267.144.48.432.64.299.15.656.283 1.072.4.427.107.853.235 1.28.384.427.15.784.406 1.072.768.299.352.448.8.448 1.344 0 .768-.299 1.371-.896 1.808-.587.438-1.328.656-2.224.656-.789 0-1.467-.165-2.032-.496a2.906 2.906 0 01-1.232-1.376l1.488-.864c.277.768.869 1.152 1.776 1.152s1.36-.298 1.36-.896c0-.256-.149-.464-.448-.624a4.437 4.437 0 00-1.072-.4 20.82 20.82 0 01-1.264-.4 2.527 2.527 0 01-1.088-.736c-.288-.352-.432-.794-.432-1.328 0-.736.277-1.328.832-1.776.565-.448 1.264-.672 2.096-.672.661 0 1.248.15 1.76.448a2.93 2.93 0 011.2 1.216l-1.456.816c-.277-.608-.779-.912-1.504-.912-.331 0-.608.075-.832.224a.687.687 0 00-.336.624zm7.361-3.728c-.213.214-.469.32-.768.32a1.1 1.1 0 01-.784-.32 1.102 1.102 0 01-.32-.784c0-.298.107-.554.32-.768.214-.224.475-.336.784-.336.31 0 .571.112.784.336.214.214.32.47.32.768 0 .299-.112.56-.336.784zm-1.632 9.52v-8h1.728v8h-1.728zm7.511.208c-1.206 0-2.214-.405-3.024-1.216-.8-.81-1.2-1.808-1.2-2.992 0-1.194.4-2.192 1.2-2.992.81-.81 1.818-1.216 3.024-1.216a4.15 4.15 0 012.128.56c.64.374 1.12.875 1.44 1.504l-1.488.864a1.997 1.997 0 00-.832-.896c-.363-.224-.784-.336-1.264-.336-.704 0-1.296.24-1.776.72-.47.48-.704 1.078-.704 1.792 0 .715.234 1.312.704 1.792.48.48 1.072.72 1.776.72.469 0 .89-.112 1.264-.336.384-.224.672-.522.864-.896l1.488.848a3.808 3.808 0 01-1.472 1.52c-.64.374-1.35.56-2.128.56z" fill="#E5F0F4"/><g filter="url(#filter6_b_103_3690)"><circle cx="92.543" cy="177.875" r="92.543" fill="url(#paint12_radial_103_3690)"/><circle cx="92.543" cy="177.875" r="92.043" stroke="url(#paint13_linear_103_3690)"/></g><path d="M40.892 174.2v2.64h-4.729V191h-2.76v-14.16h-4.752v-2.64h12.24zm1.756 11.904c.192.912.632 1.616 1.32 2.112.688.48 1.528.72 2.52.72 1.376 0 2.408-.496 3.096-1.488l2.136 1.248c-1.184 1.744-2.936 2.616-5.256 2.616-1.952 0-3.528-.592-4.728-1.776-1.2-1.2-1.8-2.712-1.8-4.536 0-1.792.592-3.288 1.776-4.488 1.184-1.216 2.704-1.824 4.56-1.824 1.76 0 3.2.616 4.32 1.848 1.136 1.232 1.704 2.728 1.704 4.488 0 .272-.032.632-.096 1.08h-9.552zm-.024-2.112h7.056c-.176-.976-.584-1.712-1.224-2.208-.624-.496-1.36-.744-2.208-.744-.96 0-1.76.264-2.4.792-.64.528-1.048 1.248-1.224 2.16zm18.274-2.496h-2.976v5.76c0 .496.112.856.336 1.08.224.208.552.328.984.36.448.016 1 .008 1.656-.024V191c-1.984.24-3.408.072-4.272-.504-.864-.592-1.296-1.672-1.296-3.24v-5.76h-2.208V179h2.208v-2.592l2.592-.768V179h2.976v2.496zm8.663-2.808c1.376 0 2.488.44 3.336 1.32.848.88 1.272 2.088 1.272 3.624V191h-2.592v-7.104c0-.896-.24-1.584-.72-2.064s-1.136-.72-1.968-.72c-.912 0-1.648.288-2.208.864-.56.56-.84 1.424-.84 2.592V191h-2.592v-16.8h2.592v6.336c.784-1.232 2.024-1.848 3.72-1.848zM79 186.104c.192.912.632 1.616 1.32 2.112.688.48 1.528.72 2.52.72 1.376 0 2.408-.496 3.096-1.488l2.136 1.248c-1.184 1.744-2.936 2.616-5.256 2.616-1.952 0-3.528-.592-4.728-1.776-1.2-1.2-1.8-2.712-1.8-4.536 0-1.792.592-3.288 1.776-4.488 1.184-1.216 2.704-1.824 4.56-1.824 1.76 0 3.2.616 4.32 1.848 1.136 1.232 1.704 2.728 1.704 4.488 0 .272-.032.632-.096 1.08H79zm-.024-2.112h7.056c-.176-.976-.584-1.712-1.224-2.208-.624-.496-1.36-.744-2.208-.744-.96 0-1.76.264-2.4.792-.64.528-1.048 1.248-1.224 2.16zm14.544-2.976c.657-1.488 1.889-2.232 3.697-2.232v2.808c-.992-.064-1.856.176-2.593.72-.736.528-1.103 1.408-1.103 2.64V191h-2.593v-12h2.593v2.016zm16.556 8.712c-1.184 1.056-2.712 1.584-4.584 1.584-1.872 0-3.4-.528-4.584-1.584-1.184-1.072-1.776-2.504-1.776-4.296V174.2h2.76v11.064c0 1.024.296 1.84.888 2.448.608.608 1.512.912 2.712.912 1.2 0 2.096-.304 2.688-.912.608-.608.912-1.424.912-2.448V174.2h2.76v11.232c0 1.792-.592 3.224-1.776 4.296zm10.542 1.584c-1.616 0-2.992-.368-4.128-1.104a5.821 5.821 0 01-2.352-3.024l2.376-1.392c.672 1.888 2.064 2.832 4.176 2.832 1.04 0 1.816-.2 2.328-.6.528-.416.792-.952.792-1.608 0-.688-.28-1.208-.84-1.56-.56-.368-1.552-.768-2.976-1.2-.8-.24-1.448-.464-1.944-.672a9.872 9.872 0 01-1.584-.864 3.698 3.698 0 01-1.224-1.416c-.272-.56-.408-1.216-.408-1.968 0-1.488.528-2.664 1.584-3.528 1.056-.88 2.328-1.32 3.816-1.32 1.344 0 2.52.328 3.528.984 1.008.656 1.784 1.56 2.328 2.712l-2.328 1.344c-.704-1.568-1.88-2.352-3.528-2.352-.8 0-1.44.192-1.92.576-.48.368-.72.872-.72 1.512 0 .624.24 1.12.72 1.488.496.352 1.384.728 2.664 1.128.64.208 1.104.368 1.392.48.304.096.72.256 1.248.48.544.224.952.448 1.224.672.272.224.56.504.864.84.32.336.544.72.672 1.152.128.432.192.92.192 1.464 0 1.52-.552 2.728-1.656 3.624-1.088.88-2.52 1.32-4.296 1.32zm14.813-17.112c2.304 0 4.216.808 5.736 2.424 1.536 1.616 2.304 3.608 2.304 5.976 0 2.352-.768 4.344-2.304 5.976-1.52 1.616-3.432 2.424-5.736 2.424h-6.6v-16.8h6.6zm0 14.16c1.584 0 2.872-.544 3.864-1.632 1.008-1.088 1.512-2.464 1.512-4.128 0-1.68-.504-3.056-1.512-4.128-.992-1.088-2.28-1.632-3.864-1.632h-3.84v11.52h3.84zm20.515-14.16v2.64h-4.728V191h-2.76v-14.16h-4.752v-2.64h12.24z" fill="#E5F0F4"/><g filter="url(#filter7_b_103_3690)"><circle cx="211.527" cy="68.506" r="68.506" fill="url(#paint14_radial_103_3690)"/><circle cx="211.527" cy="68.506" r="68.006" stroke="url(#paint15_linear_103_3690)"/></g><path d="M204.268 73.841c-.789.705-1.808 1.056-3.056 1.056s-2.267-.352-3.056-1.056c-.789-.714-1.184-1.669-1.184-2.863V63.49h1.84v7.375c0 .683.197 1.227.592 1.633.405.405 1.008.608 1.808.608s1.397-.203 1.792-.608c.405-.406.608-.95.608-1.633V63.49h1.84v7.488c0 1.194-.395 2.149-1.184 2.864zm7.028 1.056c-1.077 0-1.994-.245-2.752-.736a3.886 3.886 0 01-1.568-2.016l1.584-.927c.448 1.258 1.376 1.888 2.784 1.888.694 0 1.211-.134 1.552-.4.352-.278.528-.635.528-1.073 0-.458-.186-.805-.56-1.04-.373-.245-1.034-.511-1.984-.8-.533-.16-.965-.309-1.296-.448a6.644 6.644 0 01-1.056-.576 2.477 2.477 0 01-.816-.944c-.181-.373-.272-.81-.272-1.312 0-.992.352-1.776 1.056-2.352.704-.586 1.552-.88 2.544-.88.896 0 1.68.22 2.352.657a4.283 4.283 0 011.552 1.808l-1.552.895c-.469-1.045-1.253-1.568-2.352-1.568-.533 0-.96.129-1.28.385-.32.245-.48.58-.48 1.008 0 .416.16.746.48.992.331.234.923.485 1.776.752.427.138.736.245.928.32.203.064.48.17.832.32.363.149.635.298.816.448.182.149.374.335.576.56.214.224.363.48.448.767.086.288.128.614.128.977 0 1.013-.368 1.818-1.104 2.415-.725.587-1.68.88-2.864.88zm9.876-11.408c1.536 0 2.81.54 3.824 1.617 1.024 1.077 1.536 2.405 1.536 3.984 0 1.567-.512 2.895-1.536 3.983-1.014 1.078-2.288 1.617-3.824 1.617h-4.4v-11.2h4.4zm0 9.44c1.056 0 1.914-.362 2.576-1.088.672-.725 1.008-1.642 1.008-2.751 0-1.12-.336-2.038-1.008-2.752-.662-.726-1.52-1.088-2.576-1.088h-2.56v7.68h2.56z" fill="#E5F0F4"/><defs><radialGradient id="paint0_radial_103_3690" cx="0" cy="0" r="1" gradientUnits="userSpaceOnUse" gradientTransform="rotate(-90 259.3 106.664) scale(113.217)"><stop offset=".368" stop-color="#fff" stop-opacity=".03"/><stop offset=".667" stop-color="#fff" stop-opacity=".08"/><stop offset="1" stop-color="#fff" stop-opacity=".42"/></radialGradient><radialGradient id="paint2_radial_103_3690" cx="0" cy="0" r="1" gradientUnits="userSpaceOnUse" gradientTransform="rotate(-90 339.675 69.257) scale(59.8435)"><stop offset=".368" stop-color="#fff" stop-opacity=".03"/><stop offset=".667" stop-color="#fff" stop-opacity=".08"/><stop offset="1" stop-color="#fff" stop-opacity=".42"/></radialGradient><radialGradient id="paint4_radial_103_3690" cx="0" cy="0" r="1" gradientUnits="userSpaceOnUse" gradientTransform="rotate(-90 256.747 -17.277) scale(124.539)"><stop offset=".368" stop-color="#F8C479" stop-opacity=".04"/><stop offset=".667" stop-color="#F8C479" stop-opacity=".31"/><stop offset="1" stop-color="#F8C479"/></radialGradient><radialGradient id="paint6_radial_103_3690" cx="0" cy="0" r="1" gradientUnits="userSpaceOnUse" gradientTransform="rotate(-90 389.852 -12.77) scale(127.774)"><stop offset=".368" stop-color="#F8C479" stop-opacity=".04"/><stop offset=".667" stop-color="#F8C479" stop-opacity=".31"/><stop offset="1" stop-color="#F8C479"/></radialGradient><radialGradient id="paint8_radial_103_3690" cx="0" cy="0" r="1" gradientUnits="userSpaceOnUse" gradientTransform="rotate(-90 219.339 -127.997) scale(90.5739)"><stop offset=".368" stop-color="#fff" stop-opacity=".03"/><stop offset=".667" stop-color="#fff" stop-opacity=".08"/><stop offset="1" stop-color="#fff" stop-opacity=".42"/></radialGradient><radialGradient id="paint10_radial_103_3690" cx="0" cy="0" r="1" gradientUnits="userSpaceOnUse" gradientTransform="rotate(-90 322.699 -118.383) scale(103.513)"><stop offset=".368" stop-color="#fff" stop-opacity=".03"/><stop offset=".667" stop-color="#fff" stop-opacity=".08"/><stop offset="1" stop-color="#fff" stop-opacity=".42"/></radialGradient><radialGradient id="paint12_radial_103_3690" cx="0" cy="0" r="1" gradientUnits="userSpaceOnUse" gradientTransform="rotate(-90 146.777 54.234) scale(124.539)"><stop offset=".368" stop-color="#F8C479" stop-opacity=".04"/><stop offset=".667" stop-color="#F8C479" stop-opacity=".31"/><stop offset="1" stop-color="#F8C479"/></radialGradient><radialGradient id="paint14_radial_103_3690" cx="0" cy="0" r="1" gradientUnits="userSpaceOnUse" gradientTransform="rotate(-90 148.58 -62.947) scale(92.1913)"><stop offset=".368" stop-color="#fff" stop-opacity=".03"/><stop offset=".667" stop-color="#fff" stop-opacity=".08"/><stop offset="1" stop-color="#fff" stop-opacity=".42"/></radialGradient><linearGradient id="paint1_linear_103_3690" x1="152.636" y1="260.803" x2="152.636" y2="429.063" gradientUnits="userSpaceOnUse"><stop stop-color="#fff" stop-opacity=".09"/><stop offset="1" stop-color="#fff" stop-opacity=".01"/></linearGradient><linearGradient id="paint3_linear_103_3690" x1="270.418" y1="353.346" x2="270.418" y2="442.283" gradientUnits="userSpaceOnUse"><stop stop-color="#fff" stop-opacity=".09"/><stop offset="1" stop-color="#fff" stop-opacity=".01"/></linearGradient><linearGradient id="paint5_linear_103_3690" x1="274.023" y1="123.791" x2="274.023" y2="308.877" gradientUnits="userSpaceOnUse"><stop stop-color="#F8C479"/><stop offset="1" stop-color="#fff" stop-opacity=".01"/></linearGradient><linearGradient id="paint7_linear_103_3690" x1="402.622" y1="258.398" x2="402.622" y2="448.292" gradientUnits="userSpaceOnUse"><stop stop-color="#F8C479"/><stop offset="1" stop-color="#fff" stop-opacity=".01"/></linearGradient><linearGradient id="paint9_linear_103_3690" x1="347.336" y1="7.211" x2="347.336" y2="141.819" gradientUnits="userSpaceOnUse"><stop stop-color="#fff" stop-opacity=".09"/><stop offset="1" stop-color="#fff" stop-opacity=".01"/></linearGradient><linearGradient id="paint11_linear_103_3690" x1="441.081" y1="108.167" x2="441.081" y2="262.005" gradientUnits="userSpaceOnUse"><stop stop-color="#fff" stop-opacity=".09"/><stop offset="1" stop-color="#fff" stop-opacity=".01"/></linearGradient><linearGradient id="paint13_linear_103_3690" x1="92.543" y1="85.332" x2="92.543" y2="270.418" gradientUnits="userSpaceOnUse"><stop stop-color="#F8C479"/><stop offset="1" stop-color="#fff" stop-opacity=".01"/></linearGradient><linearGradient id="paint15_linear_103_3690" x1="211.527" y1="0" x2="211.527" y2="137.012" gradientUnits="userSpaceOnUse"><stop stop-color="#fff" stop-opacity=".09"/><stop offset="1" stop-color="#fff" stop-opacity=".01"/></linearGradient><filter id="filter0_b_103_3690" x="60.506" y="252.803" width="184.26" height="184.26" filterUnits="userSpaceOnUse" color-interpolation-filters="sRGB"><feFlood flood-opacity="0" result="BackgroundImageFix"/><feGaussianBlur in="BackgroundImage" stdDeviation="4"/><feComposite in2="SourceAlpha" operator="in" result="effect1_backgroundBlur_103_3690"/><feBlend in="SourceGraphic" in2="effect1_backgroundBlur_103_3690" result="shape"/></filter><filter id="filter1_b_103_3690" x="217.949" y="345.346" width="104.937" height="104.937" filterUnits="userSpaceOnUse" color-interpolation-filters="sRGB"><feFlood flood-opacity="0" result="BackgroundImageFix"/><feGaussianBlur in="BackgroundImage" stdDeviation="4"/><feComposite in2="SourceAlpha" operator="in" result="effect1_backgroundBlur_103_3690"/><feBlend in="SourceGraphic" in2="effect1_backgroundBlur_103_3690" result="shape"/></filter><filter id="filter2_b_103_3690" x="173.48" y="115.791" width="201.086" height="201.086" filterUnits="userSpaceOnUse" color-interpolation-filters="sRGB"><feFlood flood-opacity="0" result="BackgroundImageFix"/><feGaussianBlur in="BackgroundImage" stdDeviation="4"/><feComposite in2="SourceAlpha" operator="in" result="effect1_backgroundBlur_103_3690"/><feBlend in="SourceGraphic" in2="effect1_backgroundBlur_103_3690" result="shape"/></filter><filter id="filter3_b_103_3690" x="299.675" y="250.398" width="205.893" height="205.893" filterUnits="userSpaceOnUse" color-interpolation-filters="sRGB"><feFlood flood-opacity="0" result="BackgroundImageFix"/><feGaussianBlur in="BackgroundImage" stdDeviation="4"/><feComposite in2="SourceAlpha" operator="in" result="effect1_backgroundBlur_103_3690"/><feBlend in="SourceGraphic" in2="effect1_backgroundBlur_103_3690" result="shape"/></filter><filter id="filter4_b_103_3690" x="272.032" y="-.789" width="150.608" height="150.608" filterUnits="userSpaceOnUse" color-interpolation-filters="sRGB"><feFlood flood-opacity="0" result="BackgroundImageFix"/><feGaussianBlur in="BackgroundImage" stdDeviation="4"/><feComposite in2="SourceAlpha" operator="in" result="effect1_backgroundBlur_103_3690"/><feBlend in="SourceGraphic" in2="effect1_backgroundBlur_103_3690" result="shape"/></filter><filter id="filter5_b_103_3690" x="356.162" y="100.167" width="169.838" height="169.838" filterUnits="userSpaceOnUse" color-interpolation-filters="sRGB"><feFlood flood-opacity="0" result="BackgroundImageFix"/><feGaussianBlur in="BackgroundImage" stdDeviation="4"/><feComposite in2="SourceAlpha" operator="in" result="effect1_backgroundBlur_103_3690"/><feBlend in="SourceGraphic" in2="effect1_backgroundBlur_103_3690" result="shape"/></filter><filter id="filter6_b_103_3690" x="-8" y="77.332" width="201.086" height="201.086" filterUnits="userSpaceOnUse" color-interpolation-filters="sRGB"><feFlood flood-opacity="0" result="BackgroundImageFix"/><feGaussianBlur in="BackgroundImage" stdDeviation="4"/><feComposite in2="SourceAlpha" operator="in" result="effect1_backgroundBlur_103_3690"/><feBlend in="SourceGraphic" in2="effect1_backgroundBlur_103_3690" result="shape"/></filter><filter id="filter7_b_103_3690" x="135.021" y="-8" width="153.012" height="153.012" filterUnits="userSpaceOnUse" color-interpolation-filters="sRGB"><feFlood flood-opacity="0" result="BackgroundImageFix"/><feGaussianBlur in="BackgroundImage" stdDeviation="4"/><feComposite in2="SourceAlpha" operator="in" result="effect1_backgroundBlur_103_3690"/><feBlend in="SourceGraphic" in2="effect1_backgroundBlur_103_3690" result="shape"/></filter></defs></svg>